<svg width="168" height="244" viewBox="0 0 168 244" fill="none" xmlns="http://www.w3.org/2000/svg">
<g clip-path="url(#clip0_126_44)">
<rect x="0.5" y="0.5" width="167" height="167" rx="4.5" fill="white" stroke="url(#paint0_linear_126_44)"/>
<path d="M1.84375 202.625L4.79688 208.336L7.75781 202.625H9.46875L5.54688 209.75V214H4.03906V209.75L0.117188 202.625H1.84375ZM9.8125 209.867V209.688C9.8125 209.078 9.90104 208.513 10.0781 207.992C10.2552 207.466 10.5104 207.01 10.8438 206.625C11.1771 206.234 11.5807 205.932 12.0547 205.719C12.5286 205.5 13.0599 205.391 13.6484 205.391C14.2422 205.391 14.776 205.5 15.25 205.719C15.7292 205.932 16.1354 206.234 16.4688 206.625C16.8073 207.01 17.0651 207.466 17.2422 207.992C17.4193 208.513 17.5078 209.078 17.5078 209.688V209.867C17.5078 210.477 17.4193 211.042 17.2422 211.562C17.0651 212.083 16.8073 212.539 16.4688 212.93C16.1354 213.315 15.7318 213.617 15.2578 213.836C14.7891 214.049 14.2578 214.156 13.6641 214.156C13.0703 214.156 12.5365 214.049 12.0625 213.836C11.5885 213.617 11.1823 213.315 10.8438 212.93C10.5104 212.539 10.2552 212.083 10.0781 211.562C9.90104 211.042 9.8125 210.477 9.8125 209.867ZM11.2578 209.688V209.867C11.2578 210.289 11.3073 210.688 11.4062 211.062C11.5052 211.432 11.6536 211.76 11.8516 212.047C12.0547 212.333 12.3073 212.56 12.6094 212.727C12.9115 212.888 13.263 212.969 13.6641 212.969C14.0599 212.969 14.4062 212.888 14.7031 212.727C15.0052 212.56 15.2552 212.333 15.4531 212.047C15.651 211.76 15.7995 211.432 15.8984 211.062C16.0026 210.688 16.0547 210.289 16.0547 209.867V209.688C16.0547 209.271 16.0026 208.878 15.8984 208.508C15.7995 208.133 15.6484 207.802 15.4453 207.516C15.2474 207.224 14.9974 206.995 14.6953 206.828C14.3984 206.661 14.0495 206.578 13.6484 206.578C13.2526 206.578 12.9036 206.661 12.6016 206.828C12.3047 206.995 12.0547 207.224 11.8516 207.516C11.6536 207.802 11.5052 208.133 11.4062 208.508C11.3073 208.878 11.2578 209.271 11.2578 209.688ZM24.4922 212.047V205.547H25.9453V214H24.5625L24.4922 212.047ZM24.7656 210.266L25.3672 210.25C25.3672 210.812 25.3073 211.333 25.1875 211.812C25.0729 212.286 24.8854 212.698 24.625 213.047C24.3646 213.396 24.0234 213.669 23.6016 213.867C23.1797 214.06 22.6667 214.156 22.0625 214.156C21.651 214.156 21.2734 214.096 20.9297 213.977C20.5911 213.857 20.2995 213.672 20.0547 213.422C19.8099 213.172 19.6198 212.846 19.4844 212.445C19.3542 212.044 19.2891 211.562 19.2891 211V205.547H20.7344V211.016C20.7344 211.396 20.776 211.711 20.8594 211.961C20.9479 212.206 21.0651 212.401 21.2109 212.547C21.362 212.688 21.5286 212.786 21.7109 212.844C21.8984 212.901 22.0911 212.93 22.2891 212.93C22.9036 212.93 23.3906 212.812 23.75 212.578C24.1094 212.339 24.3672 212.018 24.5234 211.617C24.6849 211.211 24.7656 210.76 24.7656 210.266ZM29.5938 206.875V214H28.1484V205.547H29.5547L29.5938 206.875ZM32.2344 205.5L32.2266 206.844C32.1068 206.818 31.9922 206.802 31.8828 206.797C31.7786 206.786 31.6589 206.781 31.5234 206.781C31.1901 206.781 30.8958 206.833 30.6406 206.938C30.3854 207.042 30.1693 207.188 29.9922 207.375C29.8151 207.562 29.6745 207.786 29.5703 208.047C29.4714 208.302 29.4062 208.583 29.375 208.891L28.9688 209.125C28.9688 208.615 29.0182 208.135 29.1172 207.688C29.2214 207.24 29.3802 206.844 29.5938 206.5C29.8073 206.151 30.0781 205.88 30.4062 205.688C30.7396 205.49 31.1354 205.391 31.5938 205.391C31.6979 205.391 31.8177 205.404 31.9531 205.43C32.0885 205.451 32.1823 205.474 32.2344 205.5ZM39.6953 214H38.25V204.656C38.25 204.047 38.3594 203.534 38.5781 203.117C38.8021 202.695 39.1224 202.378 39.5391 202.164C39.9557 201.945 40.4505 201.836 41.0234 201.836C41.1901 201.836 41.3568 201.846 41.5234 201.867C41.6953 201.888 41.862 201.919 42.0234 201.961L41.9453 203.141C41.8359 203.115 41.7109 203.096 41.5703 203.086C41.4349 203.076 41.2995 203.07 41.1641 203.07C40.8568 203.07 40.5911 203.133 40.3672 203.258C40.1484 203.378 39.9818 203.555 39.8672 203.789C39.7526 204.023 39.6953 204.312 39.6953 204.656V214ZM41.4922 205.547V206.656H36.9141V205.547H41.4922ZM48.0859 212.555V208.203C48.0859 207.87 48.0182 207.581 47.8828 207.336C47.7526 207.086 47.5547 206.893 47.2891 206.758C47.0234 206.622 46.6953 206.555 46.3047 206.555C45.9401 206.555 45.6198 206.617 45.3438 206.742C45.0729 206.867 44.8594 207.031 44.7031 207.234C44.5521 207.438 44.4766 207.656 44.4766 207.891H43.0312C43.0312 207.589 43.1094 207.289 43.2656 206.992C43.4219 206.695 43.6458 206.427 43.9375 206.188C44.2344 205.943 44.5885 205.75 45 205.609C45.4167 205.464 45.8802 205.391 46.3906 205.391C47.0052 205.391 47.5469 205.495 48.0156 205.703C48.4896 205.911 48.8594 206.227 49.125 206.648C49.3958 207.065 49.5312 207.589 49.5312 208.219V212.156C49.5312 212.438 49.5547 212.737 49.6016 213.055C49.6536 213.372 49.7292 213.646 49.8281 213.875V214H48.3203C48.2474 213.833 48.1901 213.612 48.1484 213.336C48.1068 213.055 48.0859 212.794 48.0859 212.555ZM48.3359 208.875L48.3516 209.891H46.8906C46.4792 209.891 46.112 209.924 45.7891 209.992C45.4661 210.055 45.1953 210.151 44.9766 210.281C44.7578 210.411 44.5911 210.576 44.4766 210.773C44.362 210.966 44.3047 211.193 44.3047 211.453C44.3047 211.719 44.3646 211.961 44.4844 212.18C44.6042 212.398 44.7839 212.573 45.0234 212.703C45.2682 212.828 45.5677 212.891 45.9219 212.891C46.3646 212.891 46.7552 212.797 47.0938 212.609C47.4323 212.422 47.7005 212.193 47.8984 211.922C48.1016 211.651 48.2109 211.388 48.2266 211.133L48.8438 211.828C48.8073 212.047 48.7083 212.289 48.5469 212.555C48.3854 212.82 48.1693 213.076 47.8984 213.32C47.6328 213.56 47.3151 213.76 46.9453 213.922C46.5807 214.078 46.1693 214.156 45.7109 214.156C45.138 214.156 44.6354 214.044 44.2031 213.82C43.776 213.596 43.4427 213.297 43.2031 212.922C42.9688 212.542 42.8516 212.117 42.8516 211.648C42.8516 211.195 42.9401 210.797 43.1172 210.453C43.2943 210.104 43.5495 209.815 43.8828 209.586C44.2161 209.352 44.6172 209.174 45.0859 209.055C45.5547 208.935 46.0781 208.875 46.6562 208.875H48.3359ZM54.25 212.695L56.5625 205.547H58.0391L55 214H54.0312L54.25 212.695ZM52.3203 205.547L54.7031 212.734L54.8672 214H53.8984L50.8359 205.547H52.3203ZM58.9219 209.867V209.688C58.9219 209.078 59.0104 208.513 59.1875 207.992C59.3646 207.466 59.6198 207.01 59.9531 206.625C60.2865 206.234 60.6901 205.932 61.1641 205.719C61.638 205.5 62.1693 205.391 62.7578 205.391C63.3516 205.391 63.8854 205.5 64.3594 205.719C64.8385 205.932 65.2448 206.234 65.5781 206.625C65.9167 207.01 66.1745 207.466 66.3516 207.992C66.5286 208.513 66.6172 209.078 66.6172 209.688V209.867C66.6172 210.477 66.5286 211.042 66.3516 211.562C66.1745 212.083 65.9167 212.539 65.5781 212.93C65.2448 213.315 64.8411 213.617 64.3672 213.836C63.8984 214.049 63.3672 214.156 62.7734 214.156C62.1797 214.156 61.6458 214.049 61.1719 213.836C60.6979 213.617 60.2917 213.315 59.9531 212.93C59.6198 212.539 59.3646 212.083 59.1875 211.562C59.0104 211.042 58.9219 210.477 58.9219 209.867ZM60.3672 209.688V209.867C60.3672 210.289 60.4167 210.688 60.5156 211.062C60.6146 211.432 60.763 211.76 60.9609 212.047C61.1641 212.333 61.4167 212.56 61.7188 212.727C62.0208 212.888 62.3724 212.969 62.7734 212.969C63.1693 212.969 63.5156 212.888 63.8125 212.727C64.1146 212.56 64.3646 212.333 64.5625 212.047C64.7604 211.76 64.9089 211.432 65.0078 211.062C65.112 210.688 65.1641 210.289 65.1641 209.867V209.688C65.1641 209.271 65.112 208.878 65.0078 208.508C64.9089 208.133 64.7578 207.802 64.5547 207.516C64.3568 207.224 64.1068 206.995 63.8047 206.828C63.5078 206.661 63.1589 206.578 62.7578 206.578C62.362 206.578 62.013 206.661 61.7109 206.828C61.4141 206.995 61.1641 207.224 60.9609 207.516C60.763 207.802 60.6146 208.133 60.5156 208.508C60.4167 208.878 60.3672 209.271 60.3672 209.688ZM73.6016 212.047V205.547H75.0547V214H73.6719L73.6016 212.047ZM73.875 210.266L74.4766 210.25C74.4766 210.812 74.4167 211.333 74.2969 211.812C74.1823 212.286 73.9948 212.698 73.7344 213.047C73.474 213.396 73.1328 213.669 72.7109 213.867C72.2891 214.06 71.776 214.156 71.1719 214.156C70.7604 214.156 70.3828 214.096 70.0391 213.977C69.7005 213.857 69.4089 213.672 69.1641 213.422C68.9193 213.172 68.7292 212.846 68.5938 212.445C68.4635 212.044 68.3984 211.562 68.3984 211V205.547H69.8438V211.016C69.8438 211.396 69.8854 211.711 69.9688 211.961C70.0573 212.206 70.1745 212.401 70.3203 212.547C70.4714 212.688 70.638 212.786 70.8203 212.844C71.0078 212.901 71.2005 212.93 71.3984 212.93C72.013 212.93 72.5 212.812 72.8594 212.578C73.2188 212.339 73.4766 212.018 73.6328 211.617C73.7943 211.211 73.875 210.76 73.875 210.266ZM78.7031 206.875V214H77.2578V205.547H78.6641L78.7031 206.875ZM81.3438 205.5L81.3359 206.844C81.2161 206.818 81.1016 206.802 80.9922 206.797C80.888 206.786 80.7682 206.781 80.6328 206.781C80.2995 206.781 80.0052 206.833 79.75 206.938C79.4948 207.042 79.2786 207.188 79.1016 207.375C78.9245 207.562 78.7839 207.786 78.6797 208.047C78.5807 208.302 78.5156 208.583 78.4844 208.891L78.0781 209.125C78.0781 208.615 78.1276 208.135 78.2266 207.688C78.3307 207.24 78.4896 206.844 78.7031 206.5C78.9167 206.151 79.1875 205.88 79.5156 205.688C79.849 205.49 80.2448 205.391 80.7031 205.391C80.8073 205.391 80.9271 205.404 81.0625 205.43C81.1979 205.451 81.2917 205.474 81.3438 205.5ZM84.25 205.547V214H82.7969V205.547H84.25ZM82.6875 203.305C82.6875 203.07 82.7578 202.872 82.8984 202.711C83.0443 202.549 83.2578 202.469 83.5391 202.469C83.8151 202.469 84.026 202.549 84.1719 202.711C84.3229 202.872 84.3984 203.07 84.3984 203.305C84.3984 203.529 84.3229 203.721 84.1719 203.883C84.026 204.039 83.8151 204.117 83.5391 204.117C83.2578 204.117 83.0443 204.039 82.8984 203.883C82.7578 203.721 82.6875 203.529 82.6875 203.305ZM90.1094 205.547V206.656H85.5391V205.547H90.1094ZM87.0859 203.492H88.5312V211.906C88.5312 212.193 88.5755 212.409 88.6641 212.555C88.7526 212.701 88.8672 212.797 89.0078 212.844C89.1484 212.891 89.2995 212.914 89.4609 212.914C89.5807 212.914 89.7057 212.904 89.8359 212.883C89.9714 212.857 90.0729 212.836 90.1406 212.82L90.1484 214C90.0339 214.036 89.8828 214.07 89.6953 214.102C89.513 214.138 89.2917 214.156 89.0312 214.156C88.6771 214.156 88.3516 214.086 88.0547 213.945C87.7578 213.805 87.5208 213.57 87.3438 213.242C87.1719 212.909 87.0859 212.461 87.0859 211.898V203.492ZM95.3125 214.156C94.724 214.156 94.1901 214.057 93.7109 213.859C93.237 213.656 92.8281 213.372 92.4844 213.008C92.1458 212.643 91.8854 212.211 91.7031 211.711C91.5208 211.211 91.4297 210.664 91.4297 210.07V209.742C91.4297 209.055 91.5312 208.443 91.7344 207.906C91.9375 207.365 92.2135 206.906 92.5625 206.531C92.9115 206.156 93.3073 205.872 93.75 205.68C94.1927 205.487 94.651 205.391 95.125 205.391C95.7292 205.391 96.25 205.495 96.6875 205.703C97.1302 205.911 97.4922 206.203 97.7734 206.578C98.0547 206.948 98.263 207.385 98.3984 207.891C98.5339 208.391 98.6016 208.938 98.6016 209.531V210.18H92.2891V209H97.1562V208.891C97.1354 208.516 97.0573 208.151 96.9219 207.797C96.7917 207.443 96.5833 207.151 96.2969 206.922C96.0104 206.693 95.6198 206.578 95.125 206.578C94.7969 206.578 94.4948 206.648 94.2188 206.789C93.9427 206.924 93.7057 207.128 93.5078 207.398C93.3099 207.669 93.1562 208 93.0469 208.391C92.9375 208.781 92.8828 209.232 92.8828 209.742V210.07C92.8828 210.471 92.9375 210.849 93.0469 211.203C93.1615 211.552 93.3255 211.859 93.5391 212.125C93.7578 212.391 94.0208 212.599 94.3281 212.75C94.6406 212.901 94.9948 212.977 95.3906 212.977C95.901 212.977 96.3333 212.872 96.6875 212.664C97.0417 212.456 97.3516 212.177 97.6172 211.828L98.4922 212.523C98.3099 212.799 98.0781 213.062 97.7969 213.312C97.5156 213.562 97.1693 213.766 96.7578 213.922C96.3516 214.078 95.8698 214.156 95.3125 214.156ZM109.242 212.555V208.203C109.242 207.87 109.174 207.581 109.039 207.336C108.909 207.086 108.711 206.893 108.445 206.758C108.18 206.622 107.852 206.555 107.461 206.555C107.096 206.555 106.776 206.617 106.5 206.742C106.229 206.867 106.016 207.031 105.859 207.234C105.708 207.438 105.633 207.656 105.633 207.891H104.188C104.188 207.589 104.266 207.289 104.422 206.992C104.578 206.695 104.802 206.427 105.094 206.188C105.391 205.943 105.745 205.75 106.156 205.609C106.573 205.464 107.036 205.391 107.547 205.391C108.161 205.391 108.703 205.495 109.172 205.703C109.646 205.911 110.016 206.227 110.281 206.648C110.552 207.065 110.688 207.589 110.688 208.219V212.156C110.688 212.438 110.711 212.737 110.758 213.055C110.81 213.372 110.885 213.646 110.984 213.875V214H109.477C109.404 213.833 109.346 213.612 109.305 213.336C109.263 213.055 109.242 212.794 109.242 212.555ZM109.492 208.875L109.508 209.891H108.047C107.635 209.891 107.268 209.924 106.945 209.992C106.622 210.055 106.352 210.151 106.133 210.281C105.914 210.411 105.747 210.576 105.633 210.773C105.518 210.966 105.461 211.193 105.461 211.453C105.461 211.719 105.521 211.961 105.641 212.18C105.76 212.398 105.94 212.573 106.18 212.703C106.424 212.828 106.724 212.891 107.078 212.891C107.521 212.891 107.911 212.797 108.25 212.609C108.589 212.422 108.857 212.193 109.055 211.922C109.258 211.651 109.367 211.388 109.383 211.133L110 211.828C109.964 212.047 109.865 212.289 109.703 212.555C109.542 212.82 109.326 213.076 109.055 213.32C108.789 213.56 108.471 213.76 108.102 213.922C107.737 214.078 107.326 214.156 106.867 214.156C106.294 214.156 105.792 214.044 105.359 213.82C104.932 213.596 104.599 213.297 104.359 212.922C104.125 212.542 104.008 212.117 104.008 211.648C104.008 211.195 104.096 210.797 104.273 210.453C104.451 210.104 104.706 209.815 105.039 209.586C105.372 209.352 105.773 209.174 106.242 209.055C106.711 208.935 107.234 208.875 107.812 208.875H109.492ZM114.406 207.352V214H112.961V205.547H114.328L114.406 207.352ZM114.062 209.453L113.461 209.43C113.466 208.852 113.552 208.318 113.719 207.828C113.885 207.333 114.12 206.904 114.422 206.539C114.724 206.174 115.083 205.893 115.5 205.695C115.922 205.492 116.388 205.391 116.898 205.391C117.315 205.391 117.69 205.448 118.023 205.562C118.357 205.672 118.641 205.849 118.875 206.094C119.115 206.339 119.297 206.656 119.422 207.047C119.547 207.432 119.609 207.904 119.609 208.461V214H118.156V208.445C118.156 208.003 118.091 207.648 117.961 207.383C117.831 207.112 117.641 206.917 117.391 206.797C117.141 206.672 116.833 206.609 116.469 206.609C116.109 206.609 115.781 206.685 115.484 206.836C115.193 206.987 114.94 207.195 114.727 207.461C114.518 207.727 114.354 208.031 114.234 208.375C114.12 208.714 114.062 209.073 114.062 209.453ZM123.375 205.547V214H121.922V205.547H123.375ZM121.812 203.305C121.812 203.07 121.883 202.872 122.023 202.711C122.169 202.549 122.383 202.469 122.664 202.469C122.94 202.469 123.151 202.549 123.297 202.711C123.448 202.872 123.523 203.07 123.523 203.305C123.523 203.529 123.448 203.721 123.297 203.883C123.151 204.039 122.94 204.117 122.664 204.117C122.383 204.117 122.169 204.039 122.023 203.883C121.883 203.721 121.812 203.529 121.812 203.305ZM127.133 207.227V214H125.68V205.547H127.055L127.133 207.227ZM126.836 209.453L126.164 209.43C126.169 208.852 126.245 208.318 126.391 207.828C126.536 207.333 126.753 206.904 127.039 206.539C127.326 206.174 127.682 205.893 128.109 205.695C128.536 205.492 129.031 205.391 129.594 205.391C129.99 205.391 130.354 205.448 130.688 205.562C131.021 205.672 131.31 205.846 131.555 206.086C131.799 206.326 131.99 206.633 132.125 207.008C132.26 207.383 132.328 207.836 132.328 208.367V214H130.883V208.438C130.883 207.995 130.807 207.641 130.656 207.375C130.51 207.109 130.302 206.917 130.031 206.797C129.76 206.672 129.443 206.609 129.078 206.609C128.651 206.609 128.294 206.685 128.008 206.836C127.721 206.987 127.492 207.195 127.32 207.461C127.148 207.727 127.023 208.031 126.945 208.375C126.872 208.714 126.836 209.073 126.836 209.453ZM132.312 208.656L131.344 208.953C131.349 208.49 131.424 208.044 131.57 207.617C131.721 207.19 131.938 206.81 132.219 206.477C132.505 206.143 132.857 205.88 133.273 205.688C133.69 205.49 134.167 205.391 134.703 205.391C135.156 205.391 135.557 205.451 135.906 205.57C136.26 205.69 136.557 205.875 136.797 206.125C137.042 206.37 137.227 206.685 137.352 207.07C137.477 207.456 137.539 207.914 137.539 208.445V214H136.086V208.43C136.086 207.956 136.01 207.589 135.859 207.328C135.714 207.062 135.505 206.878 135.234 206.773C134.969 206.664 134.651 206.609 134.281 206.609C133.964 206.609 133.682 206.664 133.438 206.773C133.193 206.883 132.987 207.034 132.82 207.227C132.654 207.414 132.526 207.63 132.438 207.875C132.354 208.12 132.312 208.38 132.312 208.656ZM144.711 212.555V208.203C144.711 207.87 144.643 207.581 144.508 207.336C144.378 207.086 144.18 206.893 143.914 206.758C143.648 206.622 143.32 206.555 142.93 206.555C142.565 206.555 142.245 206.617 141.969 206.742C141.698 206.867 141.484 207.031 141.328 207.234C141.177 207.438 141.102 207.656 141.102 207.891H139.656C139.656 207.589 139.734 207.289 139.891 206.992C140.047 206.695 140.271 206.427 140.562 206.188C140.859 205.943 141.214 205.75 141.625 205.609C142.042 205.464 142.505 205.391 143.016 205.391C143.63 205.391 144.172 205.495 144.641 205.703C145.115 205.911 145.484 206.227 145.75 206.648C146.021 207.065 146.156 207.589 146.156 208.219V212.156C146.156 212.438 146.18 212.737 146.227 213.055C146.279 213.372 146.354 213.646 146.453 213.875V214H144.945C144.872 213.833 144.815 213.612 144.773 213.336C144.732 213.055 144.711 212.794 144.711 212.555ZM144.961 208.875L144.977 209.891H143.516C143.104 209.891 142.737 209.924 142.414 209.992C142.091 210.055 141.82 210.151 141.602 210.281C141.383 210.411 141.216 210.576 141.102 210.773C140.987 210.966 140.93 211.193 140.93 211.453C140.93 211.719 140.99 211.961 141.109 212.18C141.229 212.398 141.409 212.573 141.648 212.703C141.893 212.828 142.193 212.891 142.547 212.891C142.99 212.891 143.38 212.797 143.719 212.609C144.057 212.422 144.326 212.193 144.523 211.922C144.727 211.651 144.836 211.388 144.852 211.133L145.469 211.828C145.432 212.047 145.333 212.289 145.172 212.555C145.01 212.82 144.794 213.076 144.523 213.32C144.258 213.56 143.94 213.76 143.57 213.922C143.206 214.078 142.794 214.156 142.336 214.156C141.763 214.156 141.26 214.044 140.828 213.82C140.401 213.596 140.068 213.297 139.828 212.922C139.594 212.542 139.477 212.117 139.477 211.648C139.477 211.195 139.565 210.797 139.742 210.453C139.919 210.104 140.174 209.815 140.508 209.586C140.841 209.352 141.242 209.174 141.711 209.055C142.18 208.935 142.703 208.875 143.281 208.875H144.961ZM150 202V214H148.547V202H150ZM6.57812 227.547H7.89062V235.82C7.89062 236.565 7.73958 237.201 7.4375 237.727C7.13542 238.253 6.71354 238.651 6.17188 238.922C5.63542 239.198 5.01562 239.336 4.3125 239.336C4.02083 239.336 3.67708 239.289 3.28125 239.195C2.89062 239.107 2.50521 238.953 2.125 238.734C1.75 238.521 1.4349 238.232 1.17969 237.867L1.9375 237.008C2.29167 237.435 2.66146 237.732 3.04688 237.898C3.4375 238.065 3.82292 238.148 4.20312 238.148C4.66146 238.148 5.05729 238.062 5.39062 237.891C5.72396 237.719 5.98177 237.464 6.16406 237.125C6.35156 236.792 6.44531 236.38 6.44531 235.891V229.406L6.57812 227.547ZM0.757812 231.867V231.703C0.757812 231.057 0.833333 230.471 0.984375 229.945C1.14062 229.414 1.36198 228.958 1.64844 228.578C1.9401 228.198 2.29167 227.906 2.70312 227.703C3.11458 227.495 3.57812 227.391 4.09375 227.391C4.625 227.391 5.08854 227.484 5.48438 227.672C5.88542 227.854 6.22396 228.122 6.5 228.477C6.78125 228.826 7.0026 229.247 7.16406 229.742C7.32552 230.237 7.4375 230.797 7.5 231.422V232.141C7.44271 232.76 7.33073 233.318 7.16406 233.812C7.0026 234.307 6.78125 234.729 6.5 235.078C6.22396 235.427 5.88542 235.695 5.48438 235.883C5.08333 236.065 4.61458 236.156 4.07812 236.156C3.57292 236.156 3.11458 236.049 2.70312 235.836C2.29688 235.622 1.94792 235.323 1.65625 234.938C1.36458 234.552 1.14062 234.099 0.984375 233.578C0.833333 233.052 0.757812 232.482 0.757812 231.867ZM2.20312 231.703V231.867C2.20312 232.289 2.24479 232.685 2.32812 233.055C2.41667 233.424 2.54948 233.75 2.72656 234.031C2.90885 234.312 3.14062 234.534 3.42188 234.695C3.70312 234.852 4.03906 234.93 4.42969 234.93C4.90885 234.93 5.30469 234.828 5.61719 234.625C5.92969 234.422 6.17708 234.154 6.35938 233.82C6.54688 233.487 6.69271 233.125 6.79688 232.734V230.852C6.73958 230.565 6.65104 230.289 6.53125 230.023C6.41667 229.753 6.26562 229.513 6.07812 229.305C5.89583 229.091 5.66927 228.922 5.39844 228.797C5.1276 228.672 4.8099 228.609 4.44531 228.609C4.04948 228.609 3.70833 228.693 3.42188 228.859C3.14062 229.021 2.90885 229.245 2.72656 229.531C2.54948 229.812 2.41667 230.141 2.32812 230.516C2.24479 230.885 2.20312 231.281 2.20312 231.703ZM13.5938 236.156C13.0052 236.156 12.4714 236.057 11.9922 235.859C11.5182 235.656 11.1094 235.372 10.7656 235.008C10.4271 234.643 10.1667 234.211 9.98438 233.711C9.80208 233.211 9.71094 232.664 9.71094 232.07V231.742C9.71094 231.055 9.8125 230.443 10.0156 229.906C10.2188 229.365 10.4948 228.906 10.8438 228.531C11.1927 228.156 11.5885 227.872 12.0312 227.68C12.474 227.487 12.9323 227.391 13.4062 227.391C14.0104 227.391 14.5312 227.495 14.9688 227.703C15.4115 227.911 15.7734 228.203 16.0547 228.578C16.3359 228.948 16.5443 229.385 16.6797 229.891C16.8151 230.391 16.8828 230.938 16.8828 231.531V232.18H10.5703V231H15.4375V230.891C15.4167 230.516 15.3385 230.151 15.2031 229.797C15.0729 229.443 14.8646 229.151 14.5781 228.922C14.2917 228.693 13.901 228.578 13.4062 228.578C13.0781 228.578 12.776 228.648 12.5 228.789C12.224 228.924 11.987 229.128 11.7891 229.398C11.5911 229.669 11.4375 230 11.3281 230.391C11.2188 230.781 11.1641 231.232 11.1641 231.742V232.07C11.1641 232.471 11.2188 232.849 11.3281 233.203C11.4427 233.552 11.6068 233.859 11.8203 234.125C12.0391 234.391 12.3021 234.599 12.6094 234.75C12.9219 234.901 13.276 234.977 13.6719 234.977C14.1823 234.977 14.6146 234.872 14.9688 234.664C15.3229 234.456 15.6328 234.177 15.8984 233.828L16.7734 234.523C16.5911 234.799 16.3594 235.062 16.0781 235.312C15.7969 235.562 15.4505 235.766 15.0391 235.922C14.6328 236.078 14.151 236.156 13.5938 236.156ZM22.1094 227.547V228.656H17.5391V227.547H22.1094ZM19.0859 225.492H20.5312V233.906C20.5312 234.193 20.5755 234.409 20.6641 234.555C20.7526 234.701 20.8672 234.797 21.0078 234.844C21.1484 234.891 21.2995 234.914 21.4609 234.914C21.5807 234.914 21.7057 234.904 21.8359 234.883C21.9714 234.857 22.0729 234.836 22.1406 234.82L22.1484 236C22.0339 236.036 21.8828 236.07 21.6953 236.102C21.513 236.138 21.2917 236.156 21.0312 236.156C20.6771 236.156 20.3516 236.086 20.0547 235.945C19.7578 235.805 19.5208 235.57 19.3438 235.242C19.1719 234.909 19.0859 234.461 19.0859 233.898V225.492ZM28.7266 233.758C28.7266 233.549 28.6797 233.357 28.5859 233.18C28.4974 232.997 28.3125 232.833 28.0312 232.688C27.7552 232.536 27.3385 232.406 26.7812 232.297C26.3125 232.198 25.888 232.081 25.5078 231.945C25.1328 231.81 24.8125 231.646 24.5469 231.453C24.2865 231.26 24.0859 231.034 23.9453 230.773C23.8047 230.513 23.7344 230.208 23.7344 229.859C23.7344 229.526 23.8073 229.211 23.9531 228.914C24.1042 228.617 24.3151 228.354 24.5859 228.125C24.862 227.896 25.1927 227.716 25.5781 227.586C25.9635 227.456 26.3932 227.391 26.8672 227.391C27.5443 227.391 28.1224 227.51 28.6016 227.75C29.0807 227.99 29.4479 228.31 29.7031 228.711C29.9583 229.107 30.0859 229.547 30.0859 230.031H28.6406C28.6406 229.797 28.5703 229.57 28.4297 229.352C28.2943 229.128 28.0938 228.943 27.8281 228.797C27.5677 228.651 27.2474 228.578 26.8672 228.578C26.4661 228.578 26.1406 228.641 25.8906 228.766C25.6458 228.885 25.4661 229.039 25.3516 229.227C25.2422 229.414 25.1875 229.612 25.1875 229.82C25.1875 229.977 25.2135 230.117 25.2656 230.242C25.3229 230.362 25.4219 230.474 25.5625 230.578C25.7031 230.677 25.901 230.771 26.1562 230.859C26.4115 230.948 26.737 231.036 27.1328 231.125C27.8255 231.281 28.3958 231.469 28.8438 231.688C29.2917 231.906 29.625 232.174 29.8438 232.492C30.0625 232.81 30.1719 233.195 30.1719 233.648C30.1719 234.018 30.0938 234.357 29.9375 234.664C29.7865 234.971 29.5651 235.237 29.2734 235.461C28.987 235.68 28.6432 235.852 28.2422 235.977C27.8464 236.096 27.401 236.156 26.9062 236.156C26.1615 236.156 25.5312 236.023 25.0156 235.758C24.5 235.492 24.1094 235.148 23.8438 234.727C23.5781 234.305 23.4453 233.859 23.4453 233.391H24.8984C24.9193 233.786 25.0339 234.102 25.2422 234.336C25.4505 234.565 25.7057 234.729 26.0078 234.828C26.3099 234.922 26.6094 234.969 26.9062 234.969C27.3021 234.969 27.6328 234.917 27.8984 234.812C28.1693 234.708 28.375 234.565 28.5156 234.383C28.6562 234.201 28.7266 233.992 28.7266 233.758ZM41.3672 234.359V224H42.8203V236H41.4922L41.3672 234.359ZM35.6797 231.867V231.703C35.6797 231.057 35.7578 230.471 35.9141 229.945C36.0755 229.414 36.3021 228.958 36.5938 228.578C36.8906 228.198 37.2422 227.906 37.6484 227.703C38.0599 227.495 38.5182 227.391 39.0234 227.391C39.5547 227.391 40.0182 227.484 40.4141 227.672C40.8151 227.854 41.1536 228.122 41.4297 228.477C41.7109 228.826 41.9323 229.247 42.0938 229.742C42.2552 230.237 42.3672 230.797 42.4297 231.422V232.141C42.3724 232.76 42.2604 233.318 42.0938 233.812C41.9323 234.307 41.7109 234.729 41.4297 235.078C41.1536 235.427 40.8151 235.695 40.4141 235.883C40.013 236.065 39.5443 236.156 39.0078 236.156C38.513 236.156 38.0599 236.049 37.6484 235.836C37.2422 235.622 36.8906 235.323 36.5938 234.938C36.3021 234.552 36.0755 234.099 35.9141 233.578C35.7578 233.052 35.6797 232.482 35.6797 231.867ZM37.1328 231.703V231.867C37.1328 232.289 37.1745 232.685 37.2578 233.055C37.3464 233.424 37.4818 233.75 37.6641 234.031C37.8464 234.312 38.0781 234.534 38.3594 234.695C38.6406 234.852 38.9766 234.93 39.3672 234.93C39.8464 234.93 40.2396 234.828 40.5469 234.625C40.8594 234.422 41.1094 234.154 41.2969 233.82C41.4844 233.487 41.6302 233.125 41.7344 232.734V230.852C41.6719 230.565 41.5807 230.289 41.4609 230.023C41.3464 229.753 41.1953 229.513 41.0078 229.305C40.8255 229.091 40.599 228.922 40.3281 228.797C40.0625 228.672 39.7474 228.609 39.3828 228.609C38.987 228.609 38.6458 228.693 38.3594 228.859C38.0781 229.021 37.8464 229.245 37.6641 229.531C37.4818 229.812 37.3464 230.141 37.2578 230.516C37.1745 230.885 37.1328 231.281 37.1328 231.703ZM48.5781 236.156C47.9896 236.156 47.4557 236.057 46.9766 235.859C46.5026 235.656 46.0938 235.372 45.75 235.008C45.4115 234.643 45.151 234.211 44.9688 233.711C44.7865 233.211 44.6953 232.664 44.6953 232.07V231.742C44.6953 231.055 44.7969 230.443 45 229.906C45.2031 229.365 45.4792 228.906 45.8281 228.531C46.1771 228.156 46.5729 227.872 47.0156 227.68C47.4583 227.487 47.9167 227.391 48.3906 227.391C48.9948 227.391 49.5156 227.495 49.9531 227.703C50.3958 227.911 50.7578 228.203 51.0391 228.578C51.3203 228.948 51.5286 229.385 51.6641 229.891C51.7995 230.391 51.8672 230.938 51.8672 231.531V232.18H45.5547V231H50.4219V230.891C50.401 230.516 50.3229 230.151 50.1875 229.797C50.0573 229.443 49.849 229.151 49.5625 228.922C49.276 228.693 48.8854 228.578 48.3906 228.578C48.0625 228.578 47.7604 228.648 47.4844 228.789C47.2083 228.924 46.9714 229.128 46.7734 229.398C46.5755 229.669 46.4219 230 46.3125 230.391C46.2031 230.781 46.1484 231.232 46.1484 231.742V232.07C46.1484 232.471 46.2031 232.849 46.3125 233.203C46.4271 233.552 46.5911 233.859 46.8047 234.125C47.0234 234.391 47.2865 234.599 47.5938 234.75C47.9062 234.901 48.2604 234.977 48.6562 234.977C49.1667 234.977 49.599 234.872 49.9531 234.664C50.3073 234.456 50.6172 234.177 50.8828 233.828L51.7578 234.523C51.5755 234.799 51.3438 235.062 51.0625 235.312C50.7812 235.562 50.4349 235.766 50.0234 235.922C49.6172 236.078 49.1354 236.156 48.5781 236.156ZM55.125 224V236H53.6719V224H55.125ZM59.0156 227.547V236H57.5625V227.547H59.0156ZM57.4531 225.305C57.4531 225.07 57.5234 224.872 57.6641 224.711C57.8099 224.549 58.0234 224.469 58.3047 224.469C58.5807 224.469 58.7917 224.549 58.9375 224.711C59.0885 224.872 59.1641 225.07 59.1641 225.305C59.1641 225.529 59.0885 225.721 58.9375 225.883C58.7917 226.039 58.5807 226.117 58.3047 226.117C58.0234 226.117 57.8099 226.039 57.6641 225.883C57.5234 225.721 57.4531 225.529 57.4531 225.305ZM64.7188 234.969C65.0625 234.969 65.3802 234.898 65.6719 234.758C65.9635 234.617 66.2031 234.424 66.3906 234.18C66.5781 233.93 66.6849 233.646 66.7109 233.328H68.0859C68.0599 233.828 67.8906 234.294 67.5781 234.727C67.2708 235.154 66.8672 235.5 66.3672 235.766C65.8672 236.026 65.3177 236.156 64.7188 236.156C64.0833 236.156 63.5286 236.044 63.0547 235.82C62.5859 235.596 62.1953 235.289 61.8828 234.898C61.5755 234.508 61.3438 234.06 61.1875 233.555C61.0365 233.044 60.9609 232.505 60.9609 231.938V231.609C60.9609 231.042 61.0365 230.505 61.1875 230C61.3438 229.49 61.5755 229.039 61.8828 228.648C62.1953 228.258 62.5859 227.951 63.0547 227.727C63.5286 227.503 64.0833 227.391 64.7188 227.391C65.3802 227.391 65.9583 227.526 66.4531 227.797C66.9479 228.062 67.3359 228.427 67.6172 228.891C67.9036 229.349 68.0599 229.87 68.0859 230.453H66.7109C66.6849 230.104 66.5859 229.789 66.4141 229.508C66.2474 229.227 66.0182 229.003 65.7266 228.836C65.4401 228.664 65.1042 228.578 64.7188 228.578C64.276 228.578 63.9036 228.667 63.6016 228.844C63.3047 229.016 63.0677 229.25 62.8906 229.547C62.7188 229.839 62.5938 230.164 62.5156 230.523C62.4427 230.878 62.4062 231.24 62.4062 231.609V231.938C62.4062 232.307 62.4427 232.672 62.5156 233.031C62.5885 233.391 62.7109 233.716 62.8828 234.008C63.0599 234.299 63.2969 234.534 63.5938 234.711C63.8958 234.883 64.2708 234.969 64.7188 234.969ZM71.2812 227.547V236H69.8281V227.547H71.2812ZM69.7188 225.305C69.7188 225.07 69.7891 224.872 69.9297 224.711C70.0755 224.549 70.2891 224.469 70.5703 224.469C70.8464 224.469 71.0573 224.549 71.2031 224.711C71.3542 224.872 71.4297 225.07 71.4297 225.305C71.4297 225.529 71.3542 225.721 71.2031 225.883C71.0573 226.039 70.8464 226.117 70.5703 226.117C70.2891 226.117 70.0755 226.039 69.9297 225.883C69.7891 225.721 69.7188 225.529 69.7188 225.305ZM73.2188 231.867V231.688C73.2188 231.078 73.3073 230.513 73.4844 229.992C73.6615 229.466 73.9167 229.01 74.25 228.625C74.5833 228.234 74.987 227.932 75.4609 227.719C75.9349 227.5 76.4661 227.391 77.0547 227.391C77.6484 227.391 78.1823 227.5 78.6562 227.719C79.1354 227.932 79.5417 228.234 79.875 228.625C80.2135 229.01 80.4714 229.466 80.6484 229.992C80.8255 230.513 80.9141 231.078 80.9141 231.688V231.867C80.9141 232.477 80.8255 233.042 80.6484 233.562C80.4714 234.083 80.2135 234.539 79.875 234.93C79.5417 235.315 79.138 235.617 78.6641 235.836C78.1953 236.049 77.6641 236.156 77.0703 236.156C76.4766 236.156 75.9427 236.049 75.4688 235.836C74.9948 235.617 74.5885 235.315 74.25 234.93C73.9167 234.539 73.6615 234.083 73.4844 233.562C73.3073 233.042 73.2188 232.477 73.2188 231.867ZM74.6641 231.688V231.867C74.6641 232.289 74.7135 232.688 74.8125 233.062C74.9115 233.432 75.0599 233.76 75.2578 234.047C75.4609 234.333 75.7135 234.56 76.0156 234.727C76.3177 234.888 76.6693 234.969 77.0703 234.969C77.4661 234.969 77.8125 234.888 78.1094 234.727C78.4115 234.56 78.6615 234.333 78.8594 234.047C79.0573 233.76 79.2057 233.432 79.3047 233.062C79.4089 232.688 79.4609 232.289 79.4609 231.867V231.688C79.4609 231.271 79.4089 230.878 79.3047 230.508C79.2057 230.133 79.0547 229.802 78.8516 229.516C78.6536 229.224 78.4036 228.995 78.1016 228.828C77.8047 228.661 77.4557 228.578 77.0547 228.578C76.6589 228.578 76.3099 228.661 76.0078 228.828C75.7109 228.995 75.4609 229.224 75.2578 229.516C75.0599 229.802 74.9115 230.133 74.8125 230.508C74.7135 230.878 74.6641 231.271 74.6641 231.688ZM87.8984 234.047V227.547H89.3516V236H87.9688L87.8984 234.047ZM88.1719 232.266L88.7734 232.25C88.7734 232.812 88.7135 233.333 88.5938 233.812C88.4792 234.286 88.2917 234.698 88.0312 235.047C87.7708 235.396 87.4297 235.669 87.0078 235.867C86.5859 236.06 86.0729 236.156 85.4688 236.156C85.0573 236.156 84.6797 236.096 84.3359 235.977C83.9974 235.857 83.7057 235.672 83.4609 235.422C83.2161 235.172 83.026 234.846 82.8906 234.445C82.7604 234.044 82.6953 233.562 82.6953 233V227.547H84.1406V233.016C84.1406 233.396 84.1823 233.711 84.2656 233.961C84.3542 234.206 84.4714 234.401 84.6172 234.547C84.7682 234.688 84.9349 234.786 85.1172 234.844C85.3047 234.901 85.4974 234.93 85.6953 234.93C86.3099 234.93 86.7969 234.812 87.1562 234.578C87.5156 234.339 87.7734 234.018 87.9297 233.617C88.0911 233.211 88.1719 232.76 88.1719 232.266ZM96.4766 233.758C96.4766 233.549 96.4297 233.357 96.3359 233.18C96.2474 232.997 96.0625 232.833 95.7812 232.688C95.5052 232.536 95.0885 232.406 94.5312 232.297C94.0625 232.198 93.638 232.081 93.2578 231.945C92.8828 231.81 92.5625 231.646 92.2969 231.453C92.0365 231.26 91.8359 231.034 91.6953 230.773C91.5547 230.513 91.4844 230.208 91.4844 229.859C91.4844 229.526 91.5573 229.211 91.7031 228.914C91.8542 228.617 92.0651 228.354 92.3359 228.125C92.612 227.896 92.9427 227.716 93.3281 227.586C93.7135 227.456 94.1432 227.391 94.6172 227.391C95.2943 227.391 95.8724 227.51 96.3516 227.75C96.8307 227.99 97.1979 228.31 97.4531 228.711C97.7083 229.107 97.8359 229.547 97.8359 230.031H96.3906C96.3906 229.797 96.3203 229.57 96.1797 229.352C96.0443 229.128 95.8438 228.943 95.5781 228.797C95.3177 228.651 94.9974 228.578 94.6172 228.578C94.2161 228.578 93.8906 228.641 93.6406 228.766C93.3958 228.885 93.2161 229.039 93.1016 229.227C92.9922 229.414 92.9375 229.612 92.9375 229.82C92.9375 229.977 92.9635 230.117 93.0156 230.242C93.0729 230.362 93.1719 230.474 93.3125 230.578C93.4531 230.677 93.651 230.771 93.9062 230.859C94.1615 230.948 94.487 231.036 94.8828 231.125C95.5755 231.281 96.1458 231.469 96.5938 231.688C97.0417 231.906 97.375 232.174 97.5938 232.492C97.8125 232.81 97.9219 233.195 97.9219 233.648C97.9219 234.018 97.8438 234.357 97.6875 234.664C97.5365 234.971 97.3151 235.237 97.0234 235.461C96.737 235.68 96.3932 235.852 95.9922 235.977C95.5964 236.096 95.151 236.156 94.6562 236.156C93.9115 236.156 93.2812 236.023 92.7656 235.758C92.25 235.492 91.8594 235.148 91.5938 234.727C91.3281 234.305 91.1953 233.859 91.1953 233.391H92.6484C92.6693 233.786 92.7839 234.102 92.9922 234.336C93.2005 234.565 93.4557 234.729 93.7578 234.828C94.0599 234.922 94.3594 234.969 94.6562 234.969C95.0521 234.969 95.3828 234.917 95.6484 234.812C95.9193 234.708 96.125 234.565 96.2656 234.383C96.4062 234.201 96.4766 233.992 96.4766 233.758ZM109.117 234.359V224H110.57V236H109.242L109.117 234.359ZM103.43 231.867V231.703C103.43 231.057 103.508 230.471 103.664 229.945C103.826 229.414 104.052 228.958 104.344 228.578C104.641 228.198 104.992 227.906 105.398 227.703C105.81 227.495 106.268 227.391 106.773 227.391C107.305 227.391 107.768 227.484 108.164 227.672C108.565 227.854 108.904 228.122 109.18 228.477C109.461 228.826 109.682 229.247 109.844 229.742C110.005 230.237 110.117 230.797 110.18 231.422V232.141C110.122 232.76 110.01 233.318 109.844 233.812C109.682 234.307 109.461 234.729 109.18 235.078C108.904 235.427 108.565 235.695 108.164 235.883C107.763 236.065 107.294 236.156 106.758 236.156C106.263 236.156 105.81 236.049 105.398 235.836C104.992 235.622 104.641 235.323 104.344 234.938C104.052 234.552 103.826 234.099 103.664 233.578C103.508 233.052 103.43 232.482 103.43 231.867ZM104.883 231.703V231.867C104.883 232.289 104.924 232.685 105.008 233.055C105.096 233.424 105.232 233.75 105.414 234.031C105.596 234.312 105.828 234.534 106.109 234.695C106.391 234.852 106.727 234.93 107.117 234.93C107.596 234.93 107.99 234.828 108.297 234.625C108.609 234.422 108.859 234.154 109.047 233.82C109.234 233.487 109.38 233.125 109.484 232.734V230.852C109.422 230.565 109.331 230.289 109.211 230.023C109.096 229.753 108.945 229.513 108.758 229.305C108.576 229.091 108.349 228.922 108.078 228.797C107.812 228.672 107.497 228.609 107.133 228.609C106.737 228.609 106.396 228.693 106.109 228.859C105.828 229.021 105.596 229.245 105.414 229.531C105.232 229.812 105.096 230.141 105.008 230.516C104.924 230.885 104.883 231.281 104.883 231.703ZM114.391 227.547V236H112.938V227.547H114.391ZM112.828 225.305C112.828 225.07 112.898 224.872 113.039 224.711C113.185 224.549 113.398 224.469 113.68 224.469C113.956 224.469 114.167 224.549 114.312 224.711C114.464 224.872 114.539 225.07 114.539 225.305C114.539 225.529 114.464 225.721 114.312 225.883C114.167 226.039 113.956 226.117 113.68 226.117C113.398 226.117 113.185 226.039 113.039 225.883C112.898 225.721 112.828 225.529 112.828 225.305ZM121.633 233.758C121.633 233.549 121.586 233.357 121.492 233.18C121.404 232.997 121.219 232.833 120.938 232.688C120.661 232.536 120.245 232.406 119.688 232.297C119.219 232.198 118.794 232.081 118.414 231.945C118.039 231.81 117.719 231.646 117.453 231.453C117.193 231.26 116.992 231.034 116.852 230.773C116.711 230.513 116.641 230.208 116.641 229.859C116.641 229.526 116.714 229.211 116.859 228.914C117.01 228.617 117.221 228.354 117.492 228.125C117.768 227.896 118.099 227.716 118.484 227.586C118.87 227.456 119.299 227.391 119.773 227.391C120.451 227.391 121.029 227.51 121.508 227.75C121.987 227.99 122.354 228.31 122.609 228.711C122.865 229.107 122.992 229.547 122.992 230.031H121.547C121.547 229.797 121.477 229.57 121.336 229.352C121.201 229.128 121 228.943 120.734 228.797C120.474 228.651 120.154 228.578 119.773 228.578C119.372 228.578 119.047 228.641 118.797 228.766C118.552 228.885 118.372 229.039 118.258 229.227C118.148 229.414 118.094 229.612 118.094 229.82C118.094 229.977 118.12 230.117 118.172 230.242C118.229 230.362 118.328 230.474 118.469 230.578C118.609 230.677 118.807 230.771 119.062 230.859C119.318 230.948 119.643 231.036 120.039 231.125C120.732 231.281 121.302 231.469 121.75 231.688C122.198 231.906 122.531 232.174 122.75 232.492C122.969 232.81 123.078 233.195 123.078 233.648C123.078 234.018 123 234.357 122.844 234.664C122.693 234.971 122.471 235.237 122.18 235.461C121.893 235.68 121.549 235.852 121.148 235.977C120.753 236.096 120.307 236.156 119.812 236.156C119.068 236.156 118.438 236.023 117.922 235.758C117.406 235.492 117.016 235.148 116.75 234.727C116.484 234.305 116.352 233.859 116.352 233.391H117.805C117.826 233.786 117.94 234.102 118.148 234.336C118.357 234.565 118.612 234.729 118.914 234.828C119.216 234.922 119.516 234.969 119.812 234.969C120.208 234.969 120.539 234.917 120.805 234.812C121.076 234.708 121.281 234.565 121.422 234.383C121.562 234.201 121.633 233.992 121.633 233.758ZM126.422 224V236H124.977V224H126.422ZM126.078 231.453L125.477 231.43C125.482 230.852 125.568 230.318 125.734 229.828C125.901 229.333 126.135 228.904 126.438 228.539C126.74 228.174 127.099 227.893 127.516 227.695C127.938 227.492 128.404 227.391 128.914 227.391C129.331 227.391 129.706 227.448 130.039 227.562C130.372 227.672 130.656 227.849 130.891 228.094C131.13 228.339 131.312 228.656 131.438 229.047C131.562 229.432 131.625 229.904 131.625 230.461V236H130.172V230.445C130.172 230.003 130.107 229.648 129.977 229.383C129.846 229.112 129.656 228.917 129.406 228.797C129.156 228.672 128.849 228.609 128.484 228.609C128.125 228.609 127.797 228.685 127.5 228.836C127.208 228.987 126.956 229.195 126.742 229.461C126.534 229.727 126.37 230.031 126.25 230.375C126.135 230.714 126.078 231.073 126.078 231.453Z" fill="#333B41"/>
<path d="M66.3982 97.0545C66.218 96.7136 66.0378 96.4296 65.9177 96.0887C65.0768 94.1572 65.0768 92.6802 65.3771 90.8055C65.6174 89.4421 65.5573 88.7604 65.1368 88.2491C64.6563 87.6811 63.9355 87.6242 62.9144 87.5106H62.7342C62.4338 87.4538 62.1335 87.4538 61.8932 87.4538C59.5506 87.3402 58.2292 87.397 57.6285 88.2491C57.0278 89.0445 57.4483 90.2374 58.2892 91.9417C58.7097 92.7938 58.8899 93.646 59.01 94.2709C57.9889 94.3277 56.7876 94.7821 55.346 95.3502C52.4027 96.4864 48.3782 98.077 43.4528 96.6568C37.6263 95.0094 32.7609 90.6351 30.118 88.2491C28.8566 87.113 28.316 86.6017 27.8955 86.4881C27.2948 86.3176 26.514 86.7153 26.0935 86.9425L25.8532 87.0562C25.5529 87.2834 25.1324 87.6242 24.9522 88.0219C24.5318 89.3285 24.4717 91.7713 25.4928 94.4981C25.1324 94.3277 24.8922 94.2709 24.6519 94.214C24.0512 94.1572 23.3905 94.6117 22.8499 95.123L22.6697 95.2934C22.3694 95.5775 22.009 96.0319 22.009 96.4864C21.8888 98.5883 22.97 101.883 25.5529 104.951H25.4928C24.8922 105.064 24.3516 105.746 23.9912 106.371V106.598C23.811 106.996 23.6308 107.507 23.6908 107.962C24.2915 110.291 26.7542 113.643 30.8988 115.972C33.4216 117.392 37.2659 118.755 42.5518 118.755C44.8944 118.755 47.5373 118.471 50.4205 117.79C57.2681 116.199 63.6352 111.597 66.218 106.201C67.8398 103.019 67.8999 99.8381 66.3982 97.0545ZM26.0334 88.3059C26.0334 88.3059 26.0935 88.2491 26.0935 88.1923C26.2136 88.4196 26.3938 88.7036 26.574 88.9877C28.1358 91.6577 31.5596 97.6794 39.6085 100.69C34.623 99.4972 30.178 97.0545 27.5351 95.5775C27.3549 95.4638 27.1747 95.3502 26.9945 95.2934C25.7331 92.5098 25.5529 89.783 26.0334 88.3059ZM23.1502 96.6C23.1502 96.6 23.1502 96.4864 23.2704 96.3728C23.4506 96.5432 23.7509 96.8841 24.0512 97.1681C26.574 99.8381 32.5206 106.144 43.3927 106.769C43.7531 106.769 44.0534 106.769 44.4138 106.769C45.495 106.769 46.6363 106.655 47.6574 106.428C47.5373 106.485 47.3571 106.485 47.237 106.542C40.4494 108.075 32.9411 106.371 28.9166 105.462C28.2559 105.292 27.7153 105.178 27.2948 105.121C24.2314 102.11 23.0301 98.5883 23.1502 96.6ZM65.257 105.86C62.7942 110.916 56.7876 115.347 50.2403 116.824C33.5418 120.63 25.7331 111.484 24.772 107.735C24.772 107.678 24.772 107.621 24.8321 107.45C25.1324 107.564 25.4928 107.791 25.8532 108.019C29.277 110.007 37.2659 114.608 48.3782 112.052C55.7064 110.405 59.4305 105.064 61.5929 101.145C61.713 100.917 61.653 100.577 61.3526 100.463C61.1124 100.349 60.752 100.406 60.6318 100.69C58.5896 104.383 54.9856 109.496 48.0779 111.086C37.386 113.529 29.6975 109.041 26.3938 107.166C25.9133 106.882 25.5529 106.655 25.2526 106.542C25.4928 106.201 25.7331 105.973 25.8532 105.973C26.1536 105.917 27.415 106.201 28.6163 106.485C31.4995 107.166 36.1847 108.189 41.1702 108.189C43.2125 108.189 45.3749 108.019 47.4172 107.507C52.703 106.314 55.8265 103.303 58.3493 100.236C58.5295 100.009 58.4694 99.6677 58.2292 99.4972C57.9889 99.3268 57.6285 99.3836 57.4483 99.6109C57.208 99.8949 56.9077 100.236 56.6674 100.52C52.4027 104.269 48.0178 105.973 43.3326 105.689C32.9411 105.121 27.1747 99.0428 24.712 96.4296C24.3516 96.0319 24.1113 95.8047 23.871 95.5775C24.1714 95.3502 24.4116 95.2366 24.5318 95.2366C24.8321 95.2934 25.8532 95.8615 26.8744 96.4296C30.3582 98.3611 36.8454 101.94 43.693 102.338C44.0534 102.338 44.3538 102.338 44.7142 102.338C47.1168 102.338 49.1591 101.883 50.9611 101.145H51.0212C51.0812 101.145 51.0812 101.088 51.1413 101.088C53.4238 100.179 55.2258 98.9292 56.7876 97.9066C57.3282 97.5658 57.8087 97.2249 58.2292 96.9409C58.4694 96.7704 58.5295 96.4864 58.4094 96.2592C58.2292 96.0319 57.9288 95.9751 57.6886 96.0887C57.208 96.3728 56.7275 96.7136 56.1869 97.0545C54.6252 98.077 52.8232 99.3268 50.5406 100.179C47.5974 101.031 44.7142 101.088 41.9511 100.293C32.821 97.7362 29.0968 91.2032 27.475 88.4196C27.2348 88.0219 27.1146 87.7379 26.9344 87.5106C27.2348 87.397 27.415 87.3402 27.5351 87.3402C27.7754 87.4538 28.5562 88.1355 29.3371 88.874C31.98 91.26 36.9656 95.7479 43.0323 97.4521C44.534 97.8498 45.9756 98.0202 47.297 98.0202C50.6608 98.0202 53.4238 96.9409 55.6463 96.0887C57.208 95.4638 58.5295 94.9526 59.4305 95.123H59.4906H59.5506C59.5506 95.123 59.5506 95.123 59.6107 95.123C59.6708 95.123 59.6708 95.123 59.7308 95.0662C59.7308 95.0662 59.7909 95.0662 59.7909 95.0094C59.851 95.0094 59.851 94.9526 59.911 94.9526L59.9711 94.8958C59.9711 94.8958 60.0312 94.8389 60.0312 94.7821C60.0312 94.7253 60.0312 94.7253 60.0912 94.6685C60.0912 94.6685 60.0912 94.6685 60.0912 94.6117V94.5549V94.4981C60.0312 93.8164 59.851 92.453 59.2503 91.2032C58.95 90.5783 58.1691 88.9877 58.5295 88.5332C58.8298 88.0787 60.4516 88.1355 61.8932 88.1923C62.1335 88.1923 62.3738 88.1923 62.614 88.2491H62.7942C63.5751 88.3059 64.1157 88.4196 64.2959 88.59C64.4761 88.8172 64.4761 89.3853 64.356 90.3511C63.9956 92.3394 63.9956 94.0436 64.9566 96.2023C65.0768 96.5432 65.257 96.8841 65.4372 97.2249C66.7586 100.009 66.6986 102.849 65.257 105.86Z" fill="#333B41" stroke="#333B41" stroke-width="0.7"/>
<path d="M63.6964 104.894C63.4561 104.78 63.0957 104.894 62.9756 105.121C60.6931 109.779 55.1069 113.87 49.0401 115.233C48.7398 115.29 48.5596 115.574 48.6197 115.858C48.6797 116.085 48.92 116.256 49.1603 116.256C49.2203 116.256 49.2203 116.256 49.2804 116.256C55.7075 114.835 61.5941 110.518 63.9967 105.576C64.1169 105.348 63.9967 105.064 63.6964 104.894Z" fill="#333B41" stroke="#333B41" stroke-width="0.7"/>
<path d="M89.6255 48.0077C86.4284 47.9054 83.2819 48.8276 80.6419 50.6407C78.0019 52.4539 76.0055 55.0638 74.9418 58.0923C74.8919 58.2345 74.8049 58.3607 74.6898 58.4576C74.5748 58.5545 74.4359 58.6186 74.2877 58.6433C72.6668 58.9186 71.1971 59.7659 70.1431 61.0324C69.0891 62.299 68.5201 63.9018 68.5385 65.552C68.5569 67.2023 69.1616 68.7917 70.2436 70.0342C71.3256 71.2767 72.8139 72.0909 74.4405 72.3297C74.6026 72.3535 74.7543 72.4244 74.8767 72.5337C74.9991 72.643 75.087 72.7858 75.1294 72.9447C75.9252 75.9208 77.6403 78.5671 80.0282 80.5033C82.416 82.4395 85.3538 83.5659 88.4193 83.7209C87.7502 86.1745 87.3446 88.693 87.2096 91.2333L82.1491 90.4302C81.0822 90.2608 79.992 90.5238 79.1183 91.1613C78.2446 91.7988 77.6589 92.7585 77.4901 93.8296C77.3213 94.9006 77.5832 95.995 78.2181 96.8722C78.8531 97.7494 79.8091 98.3373 80.8759 98.5068L87.7495 99.5969C87.9445 100.666 88.1882 101.725 88.4796 102.771C86.9155 104.479 86.0475 106.715 86.0477 109.035V110.481C86.0475 110.705 85.9592 110.919 85.802 111.076C85.6449 111.234 85.4318 111.323 85.2096 111.323H84.7079C84.1132 111.323 83.5241 111.44 82.9745 111.668C82.4249 111.897 81.9255 112.231 81.5047 112.653C81.084 113.075 80.7503 113.577 80.5225 114.128C80.2948 114.68 80.1775 115.271 80.1775 115.868V117.054C80.1775 117.389 80.2434 117.721 80.3712 118.03C80.4991 118.34 80.6864 118.621 80.9226 118.858C81.1588 119.094 81.4391 119.282 81.7476 119.41C82.0561 119.538 82.3866 119.604 82.7204 119.603H114.923C119.252 119.604 123.532 118.686 127.483 116.91C131.434 115.133 134.966 112.539 137.848 109.296C142.41 104.704 145.459 98.8179 146.582 92.4318C147.273 86.885 145.773 81.2873 142.404 76.8364C139.774 73.4476 136.2 70.9195 132.137 69.5725C129.33 68.7241 126.327 68.7963 123.564 69.7788C120.801 70.7613 118.423 72.6028 116.774 75.0356C116.46 75.4967 116.241 76.0152 116.127 76.5616C116.014 77.108 116.008 77.6713 116.112 78.2197C116.215 78.7681 116.426 79.2906 116.73 79.7574C117.035 80.2241 117.429 80.6261 117.888 80.94C118.348 81.254 118.865 81.4738 119.409 81.5871C119.953 81.7004 120.515 81.7049 121.061 81.6003C121.607 81.4957 122.127 81.2839 122.592 80.9773C123.056 80.6707 123.456 80.2752 123.768 79.8134C124.395 78.8884 125.296 78.1847 126.343 77.8015C127.39 77.4183 128.53 77.3751 129.603 77.678C132.011 78.5014 134.128 80.0083 135.699 82.0159C137.667 84.637 138.567 87.9127 138.214 91.1761C137.343 95.8459 135.066 100.135 131.689 103.463C128.458 107.178 124.093 109.715 119.276 110.679C119.236 110.687 119.195 110.685 119.157 110.672C119.118 110.66 119.083 110.639 119.055 110.609C119.027 110.58 119.007 110.545 118.996 110.506C118.985 110.466 118.984 110.425 118.993 110.386C120.479 104.132 120.056 97.5742 117.78 91.5647C116.615 87.7952 114.669 84.3154 112.072 81.3527C109.474 78.39 106.283 76.0115 102.706 74.3725C102.884 73.9048 103.037 73.4281 103.166 72.9445C103.209 72.7856 103.297 72.6428 103.419 72.5335C103.542 72.4242 103.693 72.3533 103.855 72.3295C105.482 72.0903 106.97 71.276 108.052 70.0332C109.133 68.7904 109.738 67.2007 109.756 65.5504C109.774 63.9001 109.204 62.2977 108.15 61.0314C107.096 59.7651 105.626 58.9181 104.005 58.6431C103.857 58.6184 103.718 58.5543 103.603 58.4574C103.488 58.3605 103.401 58.2343 103.351 58.0921C102.342 55.2186 100.491 52.7183 98.0422 50.9188C95.5931 49.1193 92.6589 48.1046 89.6255 48.0077ZM88.6825 49.1136C91.6461 49.0181 94.5631 49.8727 97.0103 51.5536C99.4575 53.2344 101.308 55.6542 102.293 58.4619C102.409 58.7905 102.61 59.082 102.875 59.3062C103.141 59.5304 103.462 59.6791 103.804 59.7368C105.165 59.9681 106.399 60.6794 107.284 61.7425C108.169 62.8057 108.647 64.151 108.632 65.5364C108.617 66.9218 108.11 68.2565 107.203 69.3002C106.295 70.344 105.046 71.0284 103.681 71.2302C103.305 71.2852 102.954 71.4494 102.67 71.7026C102.386 71.9558 102.182 72.2868 102.084 72.6549C101.664 74.2271 100.964 75.7098 100.017 77.0311C100.145 74.4422 99.252 71.9069 97.531 69.9745C97.5115 69.948 97.4975 69.9177 97.4899 69.8856C97.4823 69.8535 97.4813 69.8203 97.4869 69.7878C97.4925 69.7554 97.5047 69.7243 97.5226 69.6967C97.5405 69.669 97.5638 69.6454 97.5912 69.6271C98.9577 68.4524 99.8346 66.8048 100.048 65.0114C100.261 63.2179 99.7944 61.4095 98.7413 59.9451C97.6882 58.4806 96.1253 57.4673 94.3626 57.1058C92.5999 56.7442 90.7662 57.0611 89.2254 57.9935C89.0021 58.1284 88.7463 58.1997 88.4856 58.1997C88.225 58.1997 87.9692 58.1284 87.7459 57.9935H87.7296C86.1888 57.0648 84.3568 56.7507 82.5964 57.1136C80.836 57.4765 79.2755 58.4899 78.2238 59.9529C77.1722 61.4159 76.7061 63.222 76.9178 65.0136C77.1295 66.8052 78.0037 68.4517 79.3671 69.6271C79.3901 69.6497 79.4084 69.6767 79.4208 69.7065C79.4333 69.7364 79.4397 69.7685 79.4397 69.8008C79.4397 69.8331 79.4333 69.865 79.4208 69.8949C79.4084 69.9247 79.3901 69.9519 79.3671 69.9745C78.1303 71.3661 77.3123 73.0814 77.0082 74.9212C76.6638 74.1923 76.3855 73.4338 76.1764 72.6549C76.0781 72.2873 75.8749 71.9566 75.5917 71.7034C75.3085 71.4503 74.9578 71.2858 74.5827 71.2302C73.2173 71.0284 71.9685 70.344 71.0609 69.3002C70.1532 68.2565 69.6464 66.9218 69.6315 65.5364C69.6166 64.151 70.0946 62.8057 70.9796 61.7425C71.8646 60.6794 73.0985 59.9681 74.4592 59.7368C74.8009 59.6785 75.121 59.5298 75.3861 59.3056C75.6513 59.0814 75.8519 58.7901 75.9672 58.4619C76.9016 55.7989 78.6156 53.4815 80.8845 51.8133C83.1535 50.1451 85.8716 49.2041 88.6825 49.1136ZM83.8154 58.0698C83.9709 58.0638 84.1266 58.0638 84.2821 58.0698C85.2973 58.1137 86.2853 58.413 87.1553 58.9401C87.5507 59.1789 88.0035 59.305 88.4649 59.305C88.9264 59.305 89.3791 59.1789 89.7745 58.9401C91.078 58.1551 92.6276 57.89 94.1165 58.1975C95.6054 58.5049 96.925 59.3623 97.8141 60.6C98.7033 61.8377 99.097 63.3655 98.9176 64.8809C98.7381 66.3962 97.9984 67.7887 96.8449 68.7826C96.7094 68.9003 96.5986 69.0438 96.519 69.205C96.4394 69.3661 96.3927 69.5418 96.3815 69.7214C96.3703 69.9009 96.3949 70.0808 96.4538 70.2507C96.5127 70.4206 96.6048 70.577 96.7246 70.7107C97.6682 71.7702 98.3403 73.0445 98.6827 74.4235C99.0252 75.8025 99.0276 77.2446 98.6899 78.6247C97.2914 80.0463 95.5952 81.1377 93.7245 81.8195C91.8538 82.5013 89.8553 82.7566 87.8741 82.5668C85.8929 82.377 83.9786 81.7468 82.2701 80.7221C80.5616 79.6974 79.1016 78.3037 77.9962 76.6423C77.9703 74.4565 78.761 72.3403 80.2122 70.7107C80.3315 70.5764 80.4229 70.4195 80.481 70.2493C80.5391 70.079 80.5628 69.8987 80.5507 69.7191C80.5386 69.5395 80.4909 69.3643 80.4105 69.2035C80.33 69.0427 80.2184 68.8996 80.0822 68.7826C79.1527 67.9856 78.4848 66.9251 78.1661 65.7404C77.8473 64.5557 77.8925 63.3019 78.2958 62.1434C78.6991 60.985 79.4416 59.9758 80.4261 59.2484C81.4105 58.5209 82.591 58.109 83.8126 58.0668L83.8154 58.0698ZM128.06 70.0955C129.33 70.0845 130.593 70.265 131.81 70.6311C135.656 71.9112 139.037 74.3068 141.528 77.5156C144.714 81.7258 146.137 87.0187 145.493 92.2665C144.402 98.4294 141.453 104.108 137.045 108.534C134.266 111.667 130.859 114.174 127.047 115.891C123.235 117.608 119.104 118.495 114.926 118.495H82.7233C82.5346 118.495 82.3477 118.458 82.1732 118.386C81.9987 118.314 81.8401 118.208 81.7065 118.074C81.5729 117.94 81.4669 117.781 81.3946 117.606C81.3223 117.431 81.2851 117.243 81.2851 117.054V115.868C81.2851 115.417 81.3737 114.97 81.5459 114.553C81.7181 114.136 81.9705 113.757 82.2886 113.438C82.6068 113.119 82.9844 112.866 83.4 112.693C83.8156 112.521 84.261 112.432 84.7107 112.432H85.2123C85.4677 112.433 85.7207 112.383 85.9567 112.285C86.1928 112.187 86.4073 112.043 86.588 111.862C86.7688 111.681 86.9122 111.466 87.0101 111.229C87.108 110.992 87.1584 110.738 87.1586 110.482V109.035C87.208 106.909 88.0839 104.887 89.5992 103.4C91.1144 101.914 93.1487 101.082 95.2671 101.082C97.3854 101.082 99.4197 101.914 100.935 103.4C102.45 104.887 103.326 106.909 103.376 109.035V111.511C103.38 111.656 103.44 111.792 103.543 111.893C103.646 111.994 103.784 112.05 103.928 112.05C104.072 112.05 104.21 111.994 104.313 111.893C104.416 111.792 104.476 111.656 104.48 111.511V109.035C104.481 107.414 104.057 105.822 103.252 104.418C102.447 103.013 101.289 101.845 99.8929 101.032C100.743 100.83 101.544 100.459 102.249 99.9412C102.953 99.4229 103.546 98.7677 103.994 98.0145C104.441 97.2614 104.733 96.4256 104.852 95.557C104.971 94.6884 104.915 93.8046 104.687 92.9581C104.096 90.7654 103.279 88.6405 102.249 86.6184C102.182 86.4874 102.066 86.3885 101.926 86.3434C101.786 86.2984 101.634 86.3108 101.504 86.378C101.373 86.4453 101.275 86.5618 101.23 86.702C101.185 86.8422 101.197 86.9947 101.264 87.1258C102.259 89.0788 103.047 91.1307 103.617 93.2483C103.852 94.1227 103.866 95.0424 103.657 95.9236C103.448 96.8047 103.023 97.6195 102.42 98.2936C101.818 98.9677 101.057 99.4797 100.207 99.7831C99.3565 100.087 98.4443 100.172 97.553 100.031L81.0533 97.411C80.2784 97.2851 79.5849 96.8558 79.1245 96.2175C78.6642 95.5792 78.4746 94.7839 78.5972 94.0055C78.7198 93.2272 79.1447 92.5293 79.7788 92.0648C80.4129 91.6003 81.2046 91.407 81.9803 91.5272L94.683 93.5449C94.8271 93.5663 94.9739 93.5297 95.0913 93.443C95.2088 93.3563 95.2873 93.2266 95.3099 93.082C95.3325 92.9375 95.2974 92.7898 95.2121 92.6712C95.1268 92.5525 94.9982 92.4725 94.8544 92.4485L88.3111 91.4095C88.4398 88.8119 88.8605 86.2371 89.5652 83.7343C92.244 83.6572 94.8493 82.8371 97.0925 81.3648C99.3356 79.8926 101.129 77.8257 102.274 75.3932C105.709 76.971 108.773 79.2594 111.265 82.1085C113.758 84.9575 115.623 88.3029 116.739 91.9257C118.946 97.7362 119.357 104.079 117.92 110.128C117.867 110.349 117.871 110.58 117.93 110.799C117.99 111.018 118.103 111.218 118.26 111.382C118.417 111.545 118.612 111.666 118.828 111.734C119.043 111.802 119.273 111.814 119.494 111.77C124.538 110.76 129.109 108.109 132.499 104.226C136.029 100.731 138.406 96.2332 139.309 91.3391C139.705 87.7784 138.728 84.2006 136.578 81.3408C134.868 79.1508 132.559 77.5091 129.933 76.617C128.634 76.2446 127.252 76.2929 125.982 76.7547C124.712 77.2164 123.62 78.0684 122.86 79.1893C122.629 79.5301 122.333 79.8217 121.99 80.0478C121.647 80.2739 121.262 80.43 120.859 80.507C120.456 80.584 120.041 80.5803 119.639 80.4965C119.237 80.4126 118.856 80.2501 118.516 80.0182C118.177 79.7863 117.886 79.4895 117.661 79.1449C117.436 78.8002 117.281 78.4145 117.204 78.0096C117.127 77.6046 117.131 77.1885 117.215 76.7849C117.298 76.3814 117.46 75.9983 117.691 75.6576C118.843 73.9586 120.388 72.5652 122.194 71.5966C124 70.628 126.013 70.1127 128.06 70.0955ZM88.9143 99.7819L92.213 100.305C91.1876 100.667 90.2341 101.209 89.3968 101.905C89.2148 101.202 89.0549 100.494 88.9174 99.7819H88.9143Z" fill="#333B41" stroke="#333B41" stroke-width="0.7"/>
<path d="M93.0679 61.6307C92.4493 61.6418 91.8601 61.898 91.4289 62.3434C90.9977 62.7889 90.7594 63.3874 90.766 64.0085C90.766 64.6328 91.013 65.2313 91.4527 65.6728C91.8924 66.1142 92.4888 66.3623 93.1107 66.3623C93.7325 66.3623 94.3289 66.1142 94.7686 65.6728C95.2083 65.2313 95.4553 64.6328 95.4553 64.0085C95.4586 63.6937 95.399 63.3814 95.28 63.0901C95.161 62.7989 94.9849 62.5345 94.7623 62.3127C94.5397 62.091 94.275 61.9164 93.984 61.7992C93.6929 61.682 93.3814 61.6248 93.0679 61.6307ZM93.0874 62.7526C93.2532 62.7492 93.4179 62.7793 93.5719 62.8411C93.7259 62.9029 93.866 62.995 93.9838 63.1122C94.1016 63.2293 94.1949 63.369 94.2579 63.523C94.321 63.6769 94.3526 63.842 94.3509 64.0085C94.351 64.172 94.319 64.3339 94.2567 64.485C94.1944 64.6361 94.1031 64.7734 93.988 64.889C93.8728 65.0046 93.7362 65.0963 93.5857 65.1588C93.4352 65.2214 93.274 65.2537 93.1111 65.2537C92.9483 65.2537 92.787 65.2214 92.6365 65.1588C92.4861 65.0963 92.3494 65.0046 92.2343 64.889C92.1191 64.7734 92.0278 64.6361 91.9655 64.485C91.9033 64.3339 91.8713 64.172 91.8713 64.0085C91.868 63.6805 91.994 63.3643 92.2217 63.129C92.4495 62.8938 92.7607 62.7586 93.0874 62.7526Z" fill="#333B41" stroke="#333B41" stroke-width="0.7"/>
<path d="M83.7849 61.6306C83.1663 61.6418 82.5772 61.8979 82.146 62.3434C81.7148 62.7888 81.4765 63.3874 81.4831 64.0084C81.4742 64.323 81.5283 64.6359 81.642 64.9291C81.7558 65.2223 81.9269 65.4897 82.1454 65.7153C82.3638 65.9409 82.6251 66.1202 82.9138 66.2426C83.2025 66.3651 83.5127 66.4283 83.8261 66.4283C84.1395 66.4283 84.4498 66.3651 84.7385 66.2426C85.0272 66.1202 85.2885 65.9409 85.5069 65.7153C85.7253 65.4897 85.8965 65.2223 86.0103 64.9291C86.124 64.6359 86.1781 64.323 86.1692 64.0084C86.1725 63.6939 86.113 63.3819 85.9941 63.0909C85.8753 62.7999 85.6996 62.5356 85.4773 62.3139C85.255 62.0922 84.9907 61.9176 84.7 61.8002C84.4093 61.6828 84.0981 61.6252 83.7849 61.6306ZM83.8043 62.7525C83.9699 62.7496 84.1343 62.7799 84.2879 62.8419C84.4416 62.9038 84.5812 62.996 84.6988 63.1131C84.8163 63.2302 84.9092 63.3698 84.9721 63.5235C85.0349 63.6773 85.0664 63.8422 85.0648 64.0084C85.069 64.1744 85.0401 64.3394 84.9798 64.494C84.9195 64.6485 84.8289 64.7894 84.7135 64.9083C84.5981 65.0272 84.4602 65.1214 84.3079 65.1859C84.1555 65.2504 83.9919 65.2837 83.8265 65.2837C83.6612 65.2837 83.4975 65.2504 83.3452 65.1859C83.1929 65.1214 83.0549 65.0272 82.9395 64.9083C82.8241 64.7894 82.7336 64.6485 82.6733 64.494C82.6129 64.3394 82.5841 64.1744 82.5883 64.0084C82.585 63.6804 82.7109 63.3642 82.9387 63.129C83.1665 62.8937 83.4776 62.7585 83.8043 62.7525Z" fill="#333B41" stroke="#333B41" stroke-width="0.7"/>
<path d="M84.4982 75.8265C84.947 76.4644 85.5418 76.9848 86.2326 77.344C86.9233 77.7032 87.6899 77.8909 88.4679 77.8909C89.2459 77.8909 90.0125 77.7032 90.7032 77.344C91.394 76.9848 91.9888 76.4644 92.4377 75.8265C92.5198 75.7062 92.5514 75.5582 92.5257 75.4146C92.5 75.2711 92.4191 75.1435 92.3004 75.0594C92.1818 74.9753 92.0349 74.9416 91.8915 74.9653C91.7482 74.9891 91.62 75.0684 91.5345 75.1864C91.1878 75.6791 90.7283 76.0813 90.1947 76.3587C89.661 76.6362 89.0689 76.7809 88.4679 76.7809C87.867 76.7809 87.2748 76.6362 86.7412 76.3587C86.2075 76.0813 85.748 75.6791 85.4013 75.1864C85.3158 75.0684 85.1876 74.9891 85.0443 74.9653C84.9009 74.9415 84.754 74.9753 84.6354 75.0594C84.5167 75.1435 84.4358 75.2711 84.4101 75.4146C84.3844 75.5582 84.416 75.7062 84.4982 75.8265Z" fill="#333B41" stroke="#333B41" stroke-width="0.7"/>
</g>
<defs>
<linearGradient id="paint0_linear_126_44" x1="-7.44304" y1="24.8889" x2="195.1" y2="114.913" gradientUnits="userSpaceOnUse">
<stop stop-color="#F9804B"/>
<stop offset="1" stop-color="#FE9013"/>
</linearGradient>
<clipPath id="clip0_126_44">
<rect width="168" height="244" rx="5" fill="white"/>
</clipPath>
</defs>
</svg>
