<svg width="168" height="244" viewBox="0 0 168 244" fill="none" xmlns="http://www.w3.org/2000/svg">
<g clip-path="url(#clip0_126_42)">
<rect x="0.5" y="0.5" width="167" height="167" rx="4.5" fill="white" stroke="url(#paint0_linear_126_42)"/>
<path d="M76.9727 79.0333C76.9179 79.0163 76.8647 78.9961 76.8136 78.9717C61.5438 73.2363 54.4351 83.939 54.4137 83.97C54.2636 84.1886 54.0431 84.3617 53.7715 84.4493L35.6413 90.3053C34.6161 90.6366 33.7826 91.2824 33.2286 92.1124C32.6766 92.9391 32.4004 93.9579 32.4866 95.0387L33.6618 109.798C33.6886 110.129 33.7875 110.427 33.95 110.676C34.1136 110.927 34.3465 111.138 34.6383 111.296C34.9335 111.454 35.2377 111.533 35.5349 111.531C35.8272 111.529 36.1302 111.446 36.4265 111.281L36.4274 111.283L54.7204 101.13C54.9129 101.02 55.1371 100.96 55.375 100.968C55.4203 100.97 71.2149 101.58 77.1092 102.687C82.3398 103.67 84.5584 101.745 84.565 101.74L84.5662 101.742C84.6276 101.69 84.6948 101.644 84.7678 101.605L102.447 91.9756L77.8784 91.9756V91.9723C77.7696 91.9723 77.6595 91.9579 77.5499 91.9273C76.6199 91.6678 76.0016 91.0316 75.6887 90.2784C75.5061 89.8388 75.431 89.3587 75.4628 88.8956C75.4949 88.4188 75.6421 87.9474 75.9018 87.5396C76.2835 86.9401 76.8845 86.4948 77.6978 86.3712L93.5798 81.4072C94.4471 81.1362 94.9883 80.3979 95.1524 79.5885C95.2262 79.2241 95.2241 78.8453 95.1413 78.4871C95.0654 78.1578 94.9166 77.8483 94.6915 77.5918C94.1725 76.9997 93.1985 76.6684 91.6885 76.9378L78.237 79.3373V79.3353C78.0181 79.3737 77.7869 79.3539 77.5659 79.265C77.3664 79.1845 77.1694 79.1084 76.9727 79.0333ZM76.1005 76.111V59.8639C76.1005 58.2501 76.7584 56.7838 77.8182 55.7216C78.8776 54.6594 80.3406 54 81.9511 54L132.149 54C133.76 54 135.222 54.6594 136.282 55.7216C137.342 56.7838 138 58.2501 138 59.8639V86.1118C138 87.726 137.342 89.1922 136.282 90.254C135.222 91.3162 133.76 91.9756 132.149 91.9756H107.608L86.0473 103.718C85.4669 104.156 82.3872 106.195 76.6549 105.118C71.416 104.133 57.9283 103.546 55.6268 103.451L37.6137 113.448L37.615 113.45C36.9624 113.812 36.2588 113.995 35.5444 114C34.835 114.004 34.1297 113.829 33.4697 113.474C32.8052 113.117 32.2693 112.625 31.8823 112.031C31.4935 111.435 31.2586 110.744 31.1984 109.992L30.0232 95.2325C29.8921 93.5882 30.3228 92.0227 31.1807 90.7374C32.0364 89.455 33.3172 88.4597 34.8873 87.9524L52.6337 82.2203C54.0905 80.3136 61.7499 71.5246 76.1005 76.111ZM107.293 89.4967H107.304H132.149C133.076 89.4967 133.921 89.1154 134.534 88.5014C135.146 87.8875 135.527 87.0414 135.527 86.1118V67.1068L78.5738 67.1068V76.7613L91.2635 74.4973C93.7521 74.0535 95.4987 74.7609 96.5465 75.9557C97.0494 76.5291 97.3804 77.2121 97.547 77.9351C97.6187 78.2446 97.6587 78.5623 97.669 78.882H101.352C101.693 78.882 101.97 79.1597 101.97 79.5018C101.97 79.8439 101.693 80.1215 101.352 80.1215H97.5573C97.3648 81.0267 96.9307 81.8877 96.272 82.5678C96.3585 82.6744 96.4105 82.8103 96.4105 82.9582C96.4105 83.3003 96.1335 83.5779 95.7922 83.5779H94.8243C94.661 83.6502 94.4908 83.7147 94.3139 83.7696L78.3388 88.7634C78.2469 88.7919 78.155 88.8092 78.0631 88.8163C78.021 88.8249 77.9934 88.8435 77.979 88.8663C77.9493 88.9125 77.9316 88.9807 77.9262 89.06C77.92 89.1526 77.934 89.2464 77.9687 89.3294C77.9963 89.3959 78.0408 89.455 78.1018 89.4967L107.293 89.4967ZM122.998 77.4567C123.913 77.4567 124.775 77.6872 125.528 78.0938C125.83 77.9314 126.154 77.7963 126.493 77.6926C126.993 77.5393 127.518 77.4567 128.054 77.4567C129.529 77.4567 130.864 78.0562 131.831 79.025C132.797 79.9938 133.396 81.3324 133.396 82.8103C133.396 84.2885 132.797 85.6272 131.831 86.5964C130.864 87.5652 129.529 88.1647 128.054 88.1647C127.518 88.1647 126.993 88.0821 126.493 87.9288C126.154 87.8247 125.83 87.69 125.528 87.5276C124.775 87.9342 123.913 88.1647 122.998 88.1647C121.523 88.1647 120.188 87.5652 119.221 86.5964C118.254 85.6276 117.656 84.289 117.656 82.8107C117.656 81.3324 118.254 79.9938 119.221 79.025C120.188 78.0557 121.523 77.4567 122.998 77.4567ZM126.996 79.2597C127.832 80.205 128.34 81.4485 128.34 82.8107C128.34 84.1729 127.832 85.4164 126.996 86.3617C127.325 86.4592 127.679 86.5117 128.054 86.5117C129.074 86.5117 129.997 86.0977 130.665 85.428C131.333 84.7583 131.747 83.8328 131.747 82.8103C131.747 81.7881 131.333 80.8627 130.665 80.1934C129.997 79.5237 129.074 79.1093 128.054 79.1093C127.679 79.1093 127.325 79.1622 126.996 79.2597ZM125.61 80.1934C124.942 79.5237 124.018 79.1093 122.998 79.1093C121.978 79.1093 121.055 79.5237 120.387 80.1934C119.719 80.8631 119.305 81.7882 119.305 82.8107C119.305 83.8328 119.719 84.7583 120.387 85.428C121.055 86.0977 121.978 86.5121 122.998 86.5121C124.018 86.5121 124.942 86.0977 125.61 85.428C126.278 84.7583 126.691 83.8328 126.691 82.8107C126.691 81.7882 126.278 80.8631 125.61 80.1934ZM98.6039 83.5779C98.2626 83.5779 97.9856 83.3003 97.9856 82.9582C97.9856 82.6157 98.2626 82.3385 98.6039 82.3385H100.714C101.055 82.3385 101.332 82.6157 101.332 82.9582C101.332 83.3003 101.055 83.5779 100.714 83.5779H98.6039ZM122.594 73.0459C122.252 73.0459 121.976 72.7682 121.976 72.4261C121.976 72.084 122.252 71.8064 122.594 71.8064H130.553C130.895 71.8064 131.171 72.084 131.171 72.4261C131.171 72.7682 130.895 73.0459 130.553 73.0459H122.594ZM104.408 73.0459C104.067 73.0459 103.79 72.7682 103.79 72.4261C103.79 72.084 104.067 71.8064 104.408 71.8064H115.901C116.242 71.8064 116.519 72.084 116.519 72.4261C116.519 72.7682 116.242 73.0459 115.901 73.0459H104.408ZM80.9787 73.0459C80.6374 73.0459 80.3604 72.7682 80.3604 72.4261C80.3604 72.084 80.6374 71.8064 80.9787 71.8064L97.7564 71.8064C98.0981 71.8064 98.3747 72.084 98.3747 72.4261C98.3747 72.7682 98.0981 73.0459 97.7564 73.0459L80.9787 73.0459ZM135.527 65.4542V60.6902L78.5738 60.6902V65.4542L135.527 65.4542ZM135.424 59.0376C135.272 58.4377 134.959 57.9001 134.534 57.4742C133.921 56.8602 133.076 56.4789 132.149 56.4789L81.9511 56.4789C81.0236 56.4789 80.1794 56.8602 79.5668 57.4742C79.1418 57.9001 78.8286 58.4377 78.6764 59.0376L135.424 59.0376Z" fill="#333B41"/>
<path d="M5.51562 209.539H2.47656V208.312H5.51562C6.10417 208.312 6.58073 208.219 6.94531 208.031C7.3099 207.844 7.57552 207.583 7.74219 207.25C7.91406 206.917 8 206.536 8 206.109C8 205.719 7.91406 205.352 7.74219 205.008C7.57552 204.664 7.3099 204.388 6.94531 204.18C6.58073 203.966 6.10417 203.859 5.51562 203.859H2.82812V214H1.32031V202.625H5.51562C6.375 202.625 7.10156 202.773 7.69531 203.07C8.28906 203.367 8.73958 203.779 9.04688 204.305C9.35417 204.826 9.50781 205.422 9.50781 206.094C9.50781 206.823 9.35417 207.445 9.04688 207.961C8.73958 208.477 8.28906 208.87 7.69531 209.141C7.10156 209.406 6.375 209.539 5.51562 209.539ZM16.0859 212.555V208.203C16.0859 207.87 16.0182 207.581 15.8828 207.336C15.7526 207.086 15.5547 206.893 15.2891 206.758C15.0234 206.622 14.6953 206.555 14.3047 206.555C13.9401 206.555 13.6198 206.617 13.3438 206.742C13.0729 206.867 12.8594 207.031 12.7031 207.234C12.5521 207.438 12.4766 207.656 12.4766 207.891H11.0312C11.0312 207.589 11.1094 207.289 11.2656 206.992C11.4219 206.695 11.6458 206.427 11.9375 206.188C12.2344 205.943 12.5885 205.75 13 205.609C13.4167 205.464 13.8802 205.391 14.3906 205.391C15.0052 205.391 15.5469 205.495 16.0156 205.703C16.4896 205.911 16.8594 206.227 17.125 206.648C17.3958 207.065 17.5312 207.589 17.5312 208.219V212.156C17.5312 212.438 17.5547 212.737 17.6016 213.055C17.6536 213.372 17.7292 213.646 17.8281 213.875V214H16.3203C16.2474 213.833 16.1901 213.612 16.1484 213.336C16.1068 213.055 16.0859 212.794 16.0859 212.555ZM16.3359 208.875L16.3516 209.891H14.8906C14.4792 209.891 14.112 209.924 13.7891 209.992C13.4661 210.055 13.1953 210.151 12.9766 210.281C12.7578 210.411 12.5911 210.576 12.4766 210.773C12.362 210.966 12.3047 211.193 12.3047 211.453C12.3047 211.719 12.3646 211.961 12.4844 212.18C12.6042 212.398 12.7839 212.573 13.0234 212.703C13.2682 212.828 13.5677 212.891 13.9219 212.891C14.3646 212.891 14.7552 212.797 15.0938 212.609C15.4323 212.422 15.7005 212.193 15.8984 211.922C16.1016 211.651 16.2109 211.388 16.2266 211.133L16.8438 211.828C16.8073 212.047 16.7083 212.289 16.5469 212.555C16.3854 212.82 16.1693 213.076 15.8984 213.32C15.6328 213.56 15.3151 213.76 14.9453 213.922C14.5807 214.078 14.1693 214.156 13.7109 214.156C13.138 214.156 12.6354 214.044 12.2031 213.82C11.776 213.596 11.4427 213.297 11.2031 212.922C10.9688 212.542 10.8516 212.117 10.8516 211.648C10.8516 211.195 10.9401 210.797 11.1172 210.453C11.2943 210.104 11.5495 209.815 11.8828 209.586C12.2161 209.352 12.6172 209.174 13.0859 209.055C13.5547 208.935 14.0781 208.875 14.6562 208.875H16.3359ZM22.0547 213.125L24.4062 205.547H25.9531L22.5625 215.305C22.4844 215.513 22.3802 215.737 22.25 215.977C22.125 216.221 21.9635 216.453 21.7656 216.672C21.5677 216.891 21.3281 217.068 21.0469 217.203C20.7708 217.344 20.4401 217.414 20.0547 217.414C19.9401 217.414 19.7943 217.398 19.6172 217.367C19.4401 217.336 19.3151 217.31 19.2422 217.289L19.2344 216.117C19.276 216.122 19.3411 216.128 19.4297 216.133C19.5234 216.143 19.5885 216.148 19.625 216.148C19.9531 216.148 20.2318 216.104 20.4609 216.016C20.6901 215.932 20.8828 215.789 21.0391 215.586C21.2005 215.388 21.3385 215.115 21.4531 214.766L22.0547 213.125ZM20.3281 205.547L22.5234 212.109L22.8984 213.633L21.8594 214.164L18.75 205.547H20.3281ZM33.3672 212.5L35.5391 205.547H36.4922L36.3047 206.93L34.0938 214H33.1641L33.3672 212.5ZM31.9062 205.547L33.7578 212.578L33.8906 214H32.9141L30.4609 205.547H31.9062ZM38.5703 212.523L40.3359 205.547H41.7734L39.3203 214H38.3516L38.5703 212.523ZM36.7031 205.547L38.8281 212.383L39.0703 214H38.1484L35.875 206.914L35.6875 205.547H36.7031ZM44.8281 205.547V214H43.375V205.547H44.8281ZM43.2656 203.305C43.2656 203.07 43.3359 202.872 43.4766 202.711C43.6224 202.549 43.8359 202.469 44.1172 202.469C44.3932 202.469 44.6042 202.549 44.75 202.711C44.901 202.872 44.9766 203.07 44.9766 203.305C44.9766 203.529 44.901 203.721 44.75 203.883C44.6042 204.039 44.3932 204.117 44.1172 204.117C43.8359 204.117 43.6224 204.039 43.4766 203.883C43.3359 203.721 43.2656 203.529 43.2656 203.305ZM50.6875 205.547V206.656H46.1172V205.547H50.6875ZM47.6641 203.492H49.1094V211.906C49.1094 212.193 49.1536 212.409 49.2422 212.555C49.3307 212.701 49.4453 212.797 49.5859 212.844C49.7266 212.891 49.8776 212.914 50.0391 212.914C50.1589 212.914 50.2839 212.904 50.4141 212.883C50.5495 212.857 50.651 212.836 50.7188 212.82L50.7266 214C50.612 214.036 50.4609 214.07 50.2734 214.102C50.0911 214.138 49.8698 214.156 49.6094 214.156C49.2552 214.156 48.9297 214.086 48.6328 213.945C48.3359 213.805 48.099 213.57 47.9219 213.242C47.75 212.909 47.6641 212.461 47.6641 211.898V203.492ZM53.8281 202V214H52.3828V202H53.8281ZM53.4844 209.453L52.8828 209.43C52.888 208.852 52.974 208.318 53.1406 207.828C53.3073 207.333 53.5417 206.904 53.8438 206.539C54.1458 206.174 54.5052 205.893 54.9219 205.695C55.3438 205.492 55.8099 205.391 56.3203 205.391C56.737 205.391 57.112 205.448 57.4453 205.562C57.7786 205.672 58.0625 205.849 58.2969 206.094C58.5365 206.339 58.7188 206.656 58.8438 207.047C58.9688 207.432 59.0312 207.904 59.0312 208.461V214H57.5781V208.445C57.5781 208.003 57.513 207.648 57.3828 207.383C57.2526 207.112 57.0625 206.917 56.8125 206.797C56.5625 206.672 56.2552 206.609 55.8906 206.609C55.5312 206.609 55.2031 206.685 54.9062 206.836C54.6146 206.987 54.362 207.195 54.1484 207.461C53.9401 207.727 53.776 208.031 53.6562 208.375C53.5417 208.714 53.4844 209.073 53.4844 209.453ZM68.5469 212.969C68.8906 212.969 69.2083 212.898 69.5 212.758C69.7917 212.617 70.0312 212.424 70.2188 212.18C70.4062 211.93 70.513 211.646 70.5391 211.328H71.9141C71.888 211.828 71.7188 212.294 71.4062 212.727C71.099 213.154 70.6953 213.5 70.1953 213.766C69.6953 214.026 69.1458 214.156 68.5469 214.156C67.9115 214.156 67.3568 214.044 66.8828 213.82C66.4141 213.596 66.0234 213.289 65.7109 212.898C65.4036 212.508 65.1719 212.06 65.0156 211.555C64.8646 211.044 64.7891 210.505 64.7891 209.938V209.609C64.7891 209.042 64.8646 208.505 65.0156 208C65.1719 207.49 65.4036 207.039 65.7109 206.648C66.0234 206.258 66.4141 205.951 66.8828 205.727C67.3568 205.503 67.9115 205.391 68.5469 205.391C69.2083 205.391 69.7865 205.526 70.2812 205.797C70.776 206.062 71.1641 206.427 71.4453 206.891C71.7318 207.349 71.888 207.87 71.9141 208.453H70.5391C70.513 208.104 70.4141 207.789 70.2422 207.508C70.0755 207.227 69.8464 207.003 69.5547 206.836C69.2682 206.664 68.9323 206.578 68.5469 206.578C68.1042 206.578 67.7318 206.667 67.4297 206.844C67.1328 207.016 66.8958 207.25 66.7188 207.547C66.5469 207.839 66.4219 208.164 66.3438 208.523C66.2708 208.878 66.2344 209.24 66.2344 209.609V209.938C66.2344 210.307 66.2708 210.672 66.3438 211.031C66.4167 211.391 66.5391 211.716 66.7109 212.008C66.888 212.299 67.125 212.534 67.4219 212.711C67.724 212.883 68.099 212.969 68.5469 212.969ZM78.5234 212.555V208.203C78.5234 207.87 78.4557 207.581 78.3203 207.336C78.1901 207.086 77.9922 206.893 77.7266 206.758C77.4609 206.622 77.1328 206.555 76.7422 206.555C76.3776 206.555 76.0573 206.617 75.7812 206.742C75.5104 206.867 75.2969 207.031 75.1406 207.234C74.9896 207.438 74.9141 207.656 74.9141 207.891H73.4688C73.4688 207.589 73.5469 207.289 73.7031 206.992C73.8594 206.695 74.0833 206.427 74.375 206.188C74.6719 205.943 75.026 205.75 75.4375 205.609C75.8542 205.464 76.3177 205.391 76.8281 205.391C77.4427 205.391 77.9844 205.495 78.4531 205.703C78.9271 205.911 79.2969 206.227 79.5625 206.648C79.8333 207.065 79.9688 207.589 79.9688 208.219V212.156C79.9688 212.438 79.9922 212.737 80.0391 213.055C80.0911 213.372 80.1667 213.646 80.2656 213.875V214H78.7578C78.6849 213.833 78.6276 213.612 78.5859 213.336C78.5443 213.055 78.5234 212.794 78.5234 212.555ZM78.7734 208.875L78.7891 209.891H77.3281C76.9167 209.891 76.5495 209.924 76.2266 209.992C75.9036 210.055 75.6328 210.151 75.4141 210.281C75.1953 210.411 75.0286 210.576 74.9141 210.773C74.7995 210.966 74.7422 211.193 74.7422 211.453C74.7422 211.719 74.8021 211.961 74.9219 212.18C75.0417 212.398 75.2214 212.573 75.4609 212.703C75.7057 212.828 76.0052 212.891 76.3594 212.891C76.8021 212.891 77.1927 212.797 77.5312 212.609C77.8698 212.422 78.138 212.193 78.3359 211.922C78.5391 211.651 78.6484 211.388 78.6641 211.133L79.2812 211.828C79.2448 212.047 79.1458 212.289 78.9844 212.555C78.8229 212.82 78.6068 213.076 78.3359 213.32C78.0703 213.56 77.7526 213.76 77.3828 213.922C77.0182 214.078 76.6068 214.156 76.1484 214.156C75.5755 214.156 75.0729 214.044 74.6406 213.82C74.2135 213.596 73.8802 213.297 73.6406 212.922C73.4062 212.542 73.2891 212.117 73.2891 211.648C73.2891 211.195 73.3776 210.797 73.5547 210.453C73.7318 210.104 73.987 209.815 74.3203 209.586C74.6536 209.352 75.0547 209.174 75.5234 209.055C75.9922 208.935 76.5156 208.875 77.0938 208.875H78.7734ZM83.6875 206.875V214H82.2422V205.547H83.6484L83.6875 206.875ZM86.3281 205.5L86.3203 206.844C86.2005 206.818 86.0859 206.802 85.9766 206.797C85.8724 206.786 85.7526 206.781 85.6172 206.781C85.2839 206.781 84.9896 206.833 84.7344 206.938C84.4792 207.042 84.263 207.188 84.0859 207.375C83.9089 207.562 83.7682 207.786 83.6641 208.047C83.5651 208.302 83.5 208.583 83.4688 208.891L83.0625 209.125C83.0625 208.615 83.112 208.135 83.2109 207.688C83.3151 207.24 83.474 206.844 83.6875 206.5C83.901 206.151 84.1719 205.88 84.5 205.688C84.8333 205.49 85.2292 205.391 85.6875 205.391C85.7917 205.391 85.9115 205.404 86.0469 205.43C86.1823 205.451 86.276 205.474 86.3281 205.5ZM92.8359 212.359V202H94.2891V214H92.9609L92.8359 212.359ZM87.1484 209.867V209.703C87.1484 209.057 87.2266 208.471 87.3828 207.945C87.5443 207.414 87.7708 206.958 88.0625 206.578C88.3594 206.198 88.7109 205.906 89.1172 205.703C89.5286 205.495 89.987 205.391 90.4922 205.391C91.0234 205.391 91.487 205.484 91.8828 205.672C92.2839 205.854 92.6224 206.122 92.8984 206.477C93.1797 206.826 93.401 207.247 93.5625 207.742C93.724 208.237 93.8359 208.797 93.8984 209.422V210.141C93.8411 210.76 93.7292 211.318 93.5625 211.812C93.401 212.307 93.1797 212.729 92.8984 213.078C92.6224 213.427 92.2839 213.695 91.8828 213.883C91.4818 214.065 91.013 214.156 90.4766 214.156C89.9818 214.156 89.5286 214.049 89.1172 213.836C88.7109 213.622 88.3594 213.323 88.0625 212.938C87.7708 212.552 87.5443 212.099 87.3828 211.578C87.2266 211.052 87.1484 210.482 87.1484 209.867ZM88.6016 209.703V209.867C88.6016 210.289 88.6432 210.685 88.7266 211.055C88.8151 211.424 88.9505 211.75 89.1328 212.031C89.3151 212.312 89.5469 212.534 89.8281 212.695C90.1094 212.852 90.4453 212.93 90.8359 212.93C91.3151 212.93 91.7083 212.828 92.0156 212.625C92.3281 212.422 92.5781 212.154 92.7656 211.82C92.9531 211.487 93.099 211.125 93.2031 210.734V208.852C93.1406 208.565 93.0495 208.289 92.9297 208.023C92.8151 207.753 92.6641 207.513 92.4766 207.305C92.2943 207.091 92.0677 206.922 91.7969 206.797C91.5312 206.672 91.2161 206.609 90.8516 206.609C90.4557 206.609 90.1146 206.693 89.8281 206.859C89.5469 207.021 89.3151 207.245 89.1328 207.531C88.9505 207.812 88.8151 208.141 88.7266 208.516C88.6432 208.885 88.6016 209.281 88.6016 209.703Z" fill="#333B41"/>
</g>
<defs>
<linearGradient id="paint0_linear_126_42" x1="-7.44304" y1="24.8889" x2="195.1" y2="114.913" gradientUnits="userSpaceOnUse">
<stop stop-color="#F9804B"/>
<stop offset="1" stop-color="#FE9013"/>
</linearGradient>
<clipPath id="clip0_126_42">
<rect width="168" height="244" rx="5" fill="white"/>
</clipPath>
</defs>
</svg>
