<svg width="168" height="244" viewBox="0 0 168 244" fill="none" xmlns="http://www.w3.org/2000/svg">
<g clip-path="url(#clip0_126_43)">
<rect x="0.5" y="0.5" width="167" height="167" rx="4.5" fill="white" stroke="url(#paint0_linear_126_43)"/>
<path d="M5.51562 209.539H2.47656V208.312H5.51562C6.10417 208.312 6.58073 208.219 6.94531 208.031C7.3099 207.844 7.57552 207.583 7.74219 207.25C7.91406 206.917 8 206.536 8 206.109C8 205.719 7.91406 205.352 7.74219 205.008C7.57552 204.664 7.3099 204.388 6.94531 204.18C6.58073 203.966 6.10417 203.859 5.51562 203.859H2.82812V214H1.32031V202.625H5.51562C6.375 202.625 7.10156 202.773 7.69531 203.07C8.28906 203.367 8.73958 203.779 9.04688 204.305C9.35417 204.826 9.50781 205.422 9.50781 206.094C9.50781 206.823 9.35417 207.445 9.04688 207.961C8.73958 208.477 8.28906 208.87 7.69531 209.141C7.10156 209.406 6.375 209.539 5.51562 209.539ZM16.0859 212.555V208.203C16.0859 207.87 16.0182 207.581 15.8828 207.336C15.7526 207.086 15.5547 206.893 15.2891 206.758C15.0234 206.622 14.6953 206.555 14.3047 206.555C13.9401 206.555 13.6198 206.617 13.3438 206.742C13.0729 206.867 12.8594 207.031 12.7031 207.234C12.5521 207.438 12.4766 207.656 12.4766 207.891H11.0312C11.0312 207.589 11.1094 207.289 11.2656 206.992C11.4219 206.695 11.6458 206.427 11.9375 206.188C12.2344 205.943 12.5885 205.75 13 205.609C13.4167 205.464 13.8802 205.391 14.3906 205.391C15.0052 205.391 15.5469 205.495 16.0156 205.703C16.4896 205.911 16.8594 206.227 17.125 206.648C17.3958 207.065 17.5312 207.589 17.5312 208.219V212.156C17.5312 212.438 17.5547 212.737 17.6016 213.055C17.6536 213.372 17.7292 213.646 17.8281 213.875V214H16.3203C16.2474 213.833 16.1901 213.612 16.1484 213.336C16.1068 213.055 16.0859 212.794 16.0859 212.555ZM16.3359 208.875L16.3516 209.891H14.8906C14.4792 209.891 14.112 209.924 13.7891 209.992C13.4661 210.055 13.1953 210.151 12.9766 210.281C12.7578 210.411 12.5911 210.576 12.4766 210.773C12.362 210.966 12.3047 211.193 12.3047 211.453C12.3047 211.719 12.3646 211.961 12.4844 212.18C12.6042 212.398 12.7839 212.573 13.0234 212.703C13.2682 212.828 13.5677 212.891 13.9219 212.891C14.3646 212.891 14.7552 212.797 15.0938 212.609C15.4323 212.422 15.7005 212.193 15.8984 211.922C16.1016 211.651 16.2109 211.388 16.2266 211.133L16.8438 211.828C16.8073 212.047 16.7083 212.289 16.5469 212.555C16.3854 212.82 16.1693 213.076 15.8984 213.32C15.6328 213.56 15.3151 213.76 14.9453 213.922C14.5807 214.078 14.1693 214.156 13.7109 214.156C13.138 214.156 12.6354 214.044 12.2031 213.82C11.776 213.596 11.4427 213.297 11.2031 212.922C10.9688 212.542 10.8516 212.117 10.8516 211.648C10.8516 211.195 10.9401 210.797 11.1172 210.453C11.2943 210.104 11.5495 209.815 11.8828 209.586C12.2161 209.352 12.6172 209.174 13.0859 209.055C13.5547 208.935 14.0781 208.875 14.6562 208.875H16.3359ZM22.0547 213.125L24.4062 205.547H25.9531L22.5625 215.305C22.4844 215.513 22.3802 215.737 22.25 215.977C22.125 216.221 21.9635 216.453 21.7656 216.672C21.5677 216.891 21.3281 217.068 21.0469 217.203C20.7708 217.344 20.4401 217.414 20.0547 217.414C19.9401 217.414 19.7943 217.398 19.6172 217.367C19.4401 217.336 19.3151 217.31 19.2422 217.289L19.2344 216.117C19.276 216.122 19.3411 216.128 19.4297 216.133C19.5234 216.143 19.5885 216.148 19.625 216.148C19.9531 216.148 20.2318 216.104 20.4609 216.016C20.6901 215.932 20.8828 215.789 21.0391 215.586C21.2005 215.388 21.3385 215.115 21.4531 214.766L22.0547 213.125ZM20.3281 205.547L22.5234 212.109L22.8984 213.633L21.8594 214.164L18.75 205.547H20.3281ZM28.6953 207.227V214H27.2422V205.547H28.6172L28.6953 207.227ZM28.3984 209.453L27.7266 209.43C27.7318 208.852 27.8073 208.318 27.9531 207.828C28.099 207.333 28.3151 206.904 28.6016 206.539C28.888 206.174 29.2448 205.893 29.6719 205.695C30.099 205.492 30.5938 205.391 31.1562 205.391C31.5521 205.391 31.9167 205.448 32.25 205.562C32.5833 205.672 32.8724 205.846 33.1172 206.086C33.362 206.326 33.5521 206.633 33.6875 207.008C33.8229 207.383 33.8906 207.836 33.8906 208.367V214H32.4453V208.438C32.4453 207.995 32.3698 207.641 32.2188 207.375C32.0729 207.109 31.8646 206.917 31.5938 206.797C31.3229 206.672 31.0052 206.609 30.6406 206.609C30.2135 206.609 29.8568 206.685 29.5703 206.836C29.2839 206.987 29.0547 207.195 28.8828 207.461C28.7109 207.727 28.5859 208.031 28.5078 208.375C28.4349 208.714 28.3984 209.073 28.3984 209.453ZM33.875 208.656L32.9062 208.953C32.9115 208.49 32.987 208.044 33.1328 207.617C33.2839 207.19 33.5 206.81 33.7812 206.477C34.0677 206.143 34.4193 205.88 34.8359 205.688C35.2526 205.49 35.7292 205.391 36.2656 205.391C36.7188 205.391 37.1198 205.451 37.4688 205.57C37.8229 205.69 38.1198 205.875 38.3594 206.125C38.6042 206.37 38.7891 206.685 38.9141 207.07C39.0391 207.456 39.1016 207.914 39.1016 208.445V214H37.6484V208.43C37.6484 207.956 37.5729 207.589 37.4219 207.328C37.276 207.062 37.0677 206.878 36.7969 206.773C36.5312 206.664 36.2135 206.609 35.8438 206.609C35.526 206.609 35.2448 206.664 35 206.773C34.7552 206.883 34.5495 207.034 34.3828 207.227C34.2161 207.414 34.0885 207.63 34 207.875C33.9167 208.12 33.875 208.38 33.875 208.656ZM44.7969 214.156C44.2083 214.156 43.6745 214.057 43.1953 213.859C42.7214 213.656 42.3125 213.372 41.9688 213.008C41.6302 212.643 41.3698 212.211 41.1875 211.711C41.0052 211.211 40.9141 210.664 40.9141 210.07V209.742C40.9141 209.055 41.0156 208.443 41.2188 207.906C41.4219 207.365 41.6979 206.906 42.0469 206.531C42.3958 206.156 42.7917 205.872 43.2344 205.68C43.6771 205.487 44.1354 205.391 44.6094 205.391C45.2135 205.391 45.7344 205.495 46.1719 205.703C46.6146 205.911 46.9766 206.203 47.2578 206.578C47.5391 206.948 47.7474 207.385 47.8828 207.891C48.0182 208.391 48.0859 208.938 48.0859 209.531V210.18H41.7734V209H46.6406V208.891C46.6198 208.516 46.5417 208.151 46.4062 207.797C46.276 207.443 46.0677 207.151 45.7812 206.922C45.4948 206.693 45.1042 206.578 44.6094 206.578C44.2812 206.578 43.9792 206.648 43.7031 206.789C43.4271 206.924 43.1901 207.128 42.9922 207.398C42.7943 207.669 42.6406 208 42.5312 208.391C42.4219 208.781 42.3672 209.232 42.3672 209.742V210.07C42.3672 210.471 42.4219 210.849 42.5312 211.203C42.6458 211.552 42.8099 211.859 43.0234 212.125C43.2422 212.391 43.5052 212.599 43.8125 212.75C44.125 212.901 44.4792 212.977 44.875 212.977C45.3854 212.977 45.8177 212.872 46.1719 212.664C46.526 212.456 46.8359 212.177 47.1016 211.828L47.9766 212.523C47.7943 212.799 47.5625 213.062 47.2812 213.312C47 213.562 46.6536 213.766 46.2422 213.922C45.8359 214.078 45.3542 214.156 44.7969 214.156ZM51.2188 207.352V214H49.7734V205.547H51.1406L51.2188 207.352ZM50.875 209.453L50.2734 209.43C50.2786 208.852 50.3646 208.318 50.5312 207.828C50.6979 207.333 50.9323 206.904 51.2344 206.539C51.5365 206.174 51.8958 205.893 52.3125 205.695C52.7344 205.492 53.2005 205.391 53.7109 205.391C54.1276 205.391 54.5026 205.448 54.8359 205.562C55.1693 205.672 55.4531 205.849 55.6875 206.094C55.9271 206.339 56.1094 206.656 56.2344 207.047C56.3594 207.432 56.4219 207.904 56.4219 208.461V214H54.9688V208.445C54.9688 208.003 54.9036 207.648 54.7734 207.383C54.6432 207.112 54.4531 206.917 54.2031 206.797C53.9531 206.672 53.6458 206.609 53.2812 206.609C52.9219 206.609 52.5938 206.685 52.2969 206.836C52.0052 206.987 51.7526 207.195 51.5391 207.461C51.3307 207.727 51.1667 208.031 51.0469 208.375C50.9323 208.714 50.875 209.073 50.875 209.453ZM62.1562 205.547V206.656H57.5859V205.547H62.1562ZM59.1328 203.492H60.5781V211.906C60.5781 212.193 60.6224 212.409 60.7109 212.555C60.7995 212.701 60.9141 212.797 61.0547 212.844C61.1953 212.891 61.3464 212.914 61.5078 212.914C61.6276 212.914 61.7526 212.904 61.8828 212.883C62.0182 212.857 62.1198 212.836 62.1875 212.82L62.1953 214C62.0807 214.036 61.9297 214.07 61.7422 214.102C61.5599 214.138 61.3385 214.156 61.0781 214.156C60.724 214.156 60.3984 214.086 60.1016 213.945C59.8047 213.805 59.5677 213.57 59.3906 213.242C59.2188 212.909 59.1328 212.461 59.1328 211.898V203.492ZM73.2969 205.547H74.6094V213.82C74.6094 214.565 74.4583 215.201 74.1562 215.727C73.8542 216.253 73.4323 216.651 72.8906 216.922C72.3542 217.198 71.7344 217.336 71.0312 217.336C70.7396 217.336 70.3958 217.289 70 217.195C69.6094 217.107 69.224 216.953 68.8438 216.734C68.4688 216.521 68.1536 216.232 67.8984 215.867L68.6562 215.008C69.0104 215.435 69.3802 215.732 69.7656 215.898C70.1562 216.065 70.5417 216.148 70.9219 216.148C71.3802 216.148 71.776 216.062 72.1094 215.891C72.4427 215.719 72.7005 215.464 72.8828 215.125C73.0703 214.792 73.1641 214.38 73.1641 213.891V207.406L73.2969 205.547ZM67.4766 209.867V209.703C67.4766 209.057 67.5521 208.471 67.7031 207.945C67.8594 207.414 68.0807 206.958 68.3672 206.578C68.6589 206.198 69.0104 205.906 69.4219 205.703C69.8333 205.495 70.2969 205.391 70.8125 205.391C71.3438 205.391 71.8073 205.484 72.2031 205.672C72.6042 205.854 72.9427 206.122 73.2188 206.477C73.5 206.826 73.7214 207.247 73.8828 207.742C74.0443 208.237 74.1562 208.797 74.2188 209.422V210.141C74.1615 210.76 74.0495 211.318 73.8828 211.812C73.7214 212.307 73.5 212.729 73.2188 213.078C72.9427 213.427 72.6042 213.695 72.2031 213.883C71.8021 214.065 71.3333 214.156 70.7969 214.156C70.2917 214.156 69.8333 214.049 69.4219 213.836C69.0156 213.622 68.6667 213.323 68.375 212.938C68.0833 212.552 67.8594 212.099 67.7031 211.578C67.5521 211.052 67.4766 210.482 67.4766 209.867ZM68.9219 209.703V209.867C68.9219 210.289 68.9635 210.685 69.0469 211.055C69.1354 211.424 69.2682 211.75 69.4453 212.031C69.6276 212.312 69.8594 212.534 70.1406 212.695C70.4219 212.852 70.7578 212.93 71.1484 212.93C71.6276 212.93 72.0234 212.828 72.3359 212.625C72.6484 212.422 72.8958 212.154 73.0781 211.82C73.2656 211.487 73.4115 211.125 73.5156 210.734V208.852C73.4583 208.565 73.3698 208.289 73.25 208.023C73.1354 207.753 72.9844 207.513 72.7969 207.305C72.6146 207.091 72.388 206.922 72.1172 206.797C71.8464 206.672 71.5286 206.609 71.1641 206.609C70.7682 206.609 70.4271 206.693 70.1406 206.859C69.8594 207.021 69.6276 207.245 69.4453 207.531C69.2682 207.812 69.1354 208.141 69.0469 208.516C68.9635 208.885 68.9219 209.281 68.9219 209.703ZM76.4219 209.867V209.688C76.4219 209.078 76.5104 208.513 76.6875 207.992C76.8646 207.466 77.1198 207.01 77.4531 206.625C77.7865 206.234 78.1901 205.932 78.6641 205.719C79.138 205.5 79.6693 205.391 80.2578 205.391C80.8516 205.391 81.3854 205.5 81.8594 205.719C82.3385 205.932 82.7448 206.234 83.0781 206.625C83.4167 207.01 83.6745 207.466 83.8516 207.992C84.0286 208.513 84.1172 209.078 84.1172 209.688V209.867C84.1172 210.477 84.0286 211.042 83.8516 211.562C83.6745 212.083 83.4167 212.539 83.0781 212.93C82.7448 213.315 82.3411 213.617 81.8672 213.836C81.3984 214.049 80.8672 214.156 80.2734 214.156C79.6797 214.156 79.1458 214.049 78.6719 213.836C78.1979 213.617 77.7917 213.315 77.4531 212.93C77.1198 212.539 76.8646 212.083 76.6875 211.562C76.5104 211.042 76.4219 210.477 76.4219 209.867ZM77.8672 209.688V209.867C77.8672 210.289 77.9167 210.688 78.0156 211.062C78.1146 211.432 78.263 211.76 78.4609 212.047C78.6641 212.333 78.9167 212.56 79.2188 212.727C79.5208 212.888 79.8724 212.969 80.2734 212.969C80.6693 212.969 81.0156 212.888 81.3125 212.727C81.6146 212.56 81.8646 212.333 82.0625 212.047C82.2604 211.76 82.4089 211.432 82.5078 211.062C82.612 210.688 82.6641 210.289 82.6641 209.867V209.688C82.6641 209.271 82.612 208.878 82.5078 208.508C82.4089 208.133 82.2578 207.802 82.0547 207.516C81.8568 207.224 81.6068 206.995 81.3047 206.828C81.0078 206.661 80.6589 206.578 80.2578 206.578C79.862 206.578 79.513 206.661 79.2109 206.828C78.9141 206.995 78.6641 207.224 78.4609 207.516C78.263 207.802 78.1146 208.133 78.0156 208.508C77.9167 208.878 77.8672 209.271 77.8672 209.688ZM89.4375 214.156C88.849 214.156 88.3151 214.057 87.8359 213.859C87.362 213.656 86.9531 213.372 86.6094 213.008C86.2708 212.643 86.0104 212.211 85.8281 211.711C85.6458 211.211 85.5547 210.664 85.5547 210.07V209.742C85.5547 209.055 85.6562 208.443 85.8594 207.906C86.0625 207.365 86.3385 206.906 86.6875 206.531C87.0365 206.156 87.4323 205.872 87.875 205.68C88.3177 205.487 88.776 205.391 89.25 205.391C89.8542 205.391 90.375 205.495 90.8125 205.703C91.2552 205.911 91.6172 206.203 91.8984 206.578C92.1797 206.948 92.388 207.385 92.5234 207.891C92.6589 208.391 92.7266 208.938 92.7266 209.531V210.18H86.4141V209H91.2812V208.891C91.2604 208.516 91.1823 208.151 91.0469 207.797C90.9167 207.443 90.7083 207.151 90.4219 206.922C90.1354 206.693 89.7448 206.578 89.25 206.578C88.9219 206.578 88.6198 206.648 88.3438 206.789C88.0677 206.924 87.8307 207.128 87.6328 207.398C87.4349 207.669 87.2812 208 87.1719 208.391C87.0625 208.781 87.0078 209.232 87.0078 209.742V210.07C87.0078 210.471 87.0625 210.849 87.1719 211.203C87.2865 211.552 87.4505 211.859 87.6641 212.125C87.8828 212.391 88.1458 212.599 88.4531 212.75C88.7656 212.901 89.1198 212.977 89.5156 212.977C90.026 212.977 90.4583 212.872 90.8125 212.664C91.1667 212.456 91.4766 212.177 91.7422 211.828L92.6172 212.523C92.4349 212.799 92.2031 213.062 91.9219 213.312C91.6406 213.562 91.2943 213.766 90.8828 213.922C90.4766 214.078 89.9948 214.156 89.4375 214.156ZM99.3359 211.758C99.3359 211.549 99.2891 211.357 99.1953 211.18C99.1068 210.997 98.9219 210.833 98.6406 210.688C98.3646 210.536 97.9479 210.406 97.3906 210.297C96.9219 210.198 96.4974 210.081 96.1172 209.945C95.7422 209.81 95.4219 209.646 95.1562 209.453C94.8958 209.26 94.6953 209.034 94.5547 208.773C94.4141 208.513 94.3438 208.208 94.3438 207.859C94.3438 207.526 94.4167 207.211 94.5625 206.914C94.7135 206.617 94.9245 206.354 95.1953 206.125C95.4714 205.896 95.8021 205.716 96.1875 205.586C96.5729 205.456 97.0026 205.391 97.4766 205.391C98.1536 205.391 98.7318 205.51 99.2109 205.75C99.6901 205.99 100.057 206.31 100.312 206.711C100.568 207.107 100.695 207.547 100.695 208.031H99.25C99.25 207.797 99.1797 207.57 99.0391 207.352C98.9036 207.128 98.7031 206.943 98.4375 206.797C98.1771 206.651 97.8568 206.578 97.4766 206.578C97.0755 206.578 96.75 206.641 96.5 206.766C96.2552 206.885 96.0755 207.039 95.9609 207.227C95.8516 207.414 95.7969 207.612 95.7969 207.82C95.7969 207.977 95.8229 208.117 95.875 208.242C95.9323 208.362 96.0312 208.474 96.1719 208.578C96.3125 208.677 96.5104 208.771 96.7656 208.859C97.0208 208.948 97.3464 209.036 97.7422 209.125C98.4349 209.281 99.0052 209.469 99.4531 209.688C99.901 209.906 100.234 210.174 100.453 210.492C100.672 210.81 100.781 211.195 100.781 211.648C100.781 212.018 100.703 212.357 100.547 212.664C100.396 212.971 100.174 213.237 99.8828 213.461C99.5964 213.68 99.2526 213.852 98.8516 213.977C98.4557 214.096 98.0104 214.156 97.5156 214.156C96.7708 214.156 96.1406 214.023 95.625 213.758C95.1094 213.492 94.7188 213.148 94.4531 212.727C94.1875 212.305 94.0547 211.859 94.0547 211.391H95.5078C95.5286 211.786 95.6432 212.102 95.8516 212.336C96.0599 212.565 96.3151 212.729 96.6172 212.828C96.9193 212.922 97.2188 212.969 97.5156 212.969C97.9115 212.969 98.2422 212.917 98.5078 212.812C98.7786 212.708 98.9844 212.565 99.125 212.383C99.2656 212.201 99.3359 211.992 99.3359 211.758ZM110.188 205.547V206.656H105.617V205.547H110.188ZM107.164 203.492H108.609V211.906C108.609 212.193 108.654 212.409 108.742 212.555C108.831 212.701 108.945 212.797 109.086 212.844C109.227 212.891 109.378 212.914 109.539 212.914C109.659 212.914 109.784 212.904 109.914 212.883C110.049 212.857 110.151 212.836 110.219 212.82L110.227 214C110.112 214.036 109.961 214.07 109.773 214.102C109.591 214.138 109.37 214.156 109.109 214.156C108.755 214.156 108.43 214.086 108.133 213.945C107.836 213.805 107.599 213.57 107.422 213.242C107.25 212.909 107.164 212.461 107.164 211.898V203.492ZM111.344 209.867V209.688C111.344 209.078 111.432 208.513 111.609 207.992C111.786 207.466 112.042 207.01 112.375 206.625C112.708 206.234 113.112 205.932 113.586 205.719C114.06 205.5 114.591 205.391 115.18 205.391C115.773 205.391 116.307 205.5 116.781 205.719C117.26 205.932 117.667 206.234 118 206.625C118.339 207.01 118.596 207.466 118.773 207.992C118.951 208.513 119.039 209.078 119.039 209.688V209.867C119.039 210.477 118.951 211.042 118.773 211.562C118.596 212.083 118.339 212.539 118 212.93C117.667 213.315 117.263 213.617 116.789 213.836C116.32 214.049 115.789 214.156 115.195 214.156C114.602 214.156 114.068 214.049 113.594 213.836C113.12 213.617 112.714 213.315 112.375 212.93C112.042 212.539 111.786 212.083 111.609 211.562C111.432 211.042 111.344 210.477 111.344 209.867ZM112.789 209.688V209.867C112.789 210.289 112.839 210.688 112.938 211.062C113.036 211.432 113.185 211.76 113.383 212.047C113.586 212.333 113.839 212.56 114.141 212.727C114.443 212.888 114.794 212.969 115.195 212.969C115.591 212.969 115.938 212.888 116.234 212.727C116.536 212.56 116.786 212.333 116.984 212.047C117.182 211.76 117.331 211.432 117.43 211.062C117.534 210.688 117.586 210.289 117.586 209.867V209.688C117.586 209.271 117.534 208.878 117.43 208.508C117.331 208.133 117.18 207.802 116.977 207.516C116.779 207.224 116.529 206.995 116.227 206.828C115.93 206.661 115.581 206.578 115.18 206.578C114.784 206.578 114.435 206.661 114.133 206.828C113.836 206.995 113.586 207.224 113.383 207.516C113.185 207.802 113.036 208.133 112.938 208.508C112.839 208.878 112.789 209.271 112.789 209.688ZM128.359 205.547V206.656H123.789V205.547H128.359ZM125.336 203.492H126.781V211.906C126.781 212.193 126.826 212.409 126.914 212.555C127.003 212.701 127.117 212.797 127.258 212.844C127.398 212.891 127.549 212.914 127.711 212.914C127.831 212.914 127.956 212.904 128.086 212.883C128.221 212.857 128.323 212.836 128.391 212.82L128.398 214C128.284 214.036 128.133 214.07 127.945 214.102C127.763 214.138 127.542 214.156 127.281 214.156C126.927 214.156 126.602 214.086 126.305 213.945C126.008 213.805 125.771 213.57 125.594 213.242C125.422 212.909 125.336 212.461 125.336 211.898V203.492ZM131.5 202V214H130.055V202H131.5ZM131.156 209.453L130.555 209.43C130.56 208.852 130.646 208.318 130.812 207.828C130.979 207.333 131.214 206.904 131.516 206.539C131.818 206.174 132.177 205.893 132.594 205.695C133.016 205.492 133.482 205.391 133.992 205.391C134.409 205.391 134.784 205.448 135.117 205.562C135.451 205.672 135.734 205.849 135.969 206.094C136.208 206.339 136.391 206.656 136.516 207.047C136.641 207.432 136.703 207.904 136.703 208.461V214H135.25V208.445C135.25 208.003 135.185 207.648 135.055 207.383C134.924 207.112 134.734 206.917 134.484 206.797C134.234 206.672 133.927 206.609 133.562 206.609C133.203 206.609 132.875 206.685 132.578 206.836C132.286 206.987 132.034 207.195 131.82 207.461C131.612 207.727 131.448 208.031 131.328 208.375C131.214 208.714 131.156 209.073 131.156 209.453ZM142.375 214.156C141.786 214.156 141.253 214.057 140.773 213.859C140.299 213.656 139.891 213.372 139.547 213.008C139.208 212.643 138.948 212.211 138.766 211.711C138.583 211.211 138.492 210.664 138.492 210.07V209.742C138.492 209.055 138.594 208.443 138.797 207.906C139 207.365 139.276 206.906 139.625 206.531C139.974 206.156 140.37 205.872 140.812 205.68C141.255 205.487 141.714 205.391 142.188 205.391C142.792 205.391 143.312 205.495 143.75 205.703C144.193 205.911 144.555 206.203 144.836 206.578C145.117 206.948 145.326 207.385 145.461 207.891C145.596 208.391 145.664 208.938 145.664 209.531V210.18H139.352V209H144.219V208.891C144.198 208.516 144.12 208.151 143.984 207.797C143.854 207.443 143.646 207.151 143.359 206.922C143.073 206.693 142.682 206.578 142.188 206.578C141.859 206.578 141.557 206.648 141.281 206.789C141.005 206.924 140.768 207.128 140.57 207.398C140.372 207.669 140.219 208 140.109 208.391C140 208.781 139.945 209.232 139.945 209.742V210.07C139.945 210.471 140 210.849 140.109 211.203C140.224 211.552 140.388 211.859 140.602 212.125C140.82 212.391 141.083 212.599 141.391 212.75C141.703 212.901 142.057 212.977 142.453 212.977C142.964 212.977 143.396 212.872 143.75 212.664C144.104 212.456 144.414 212.177 144.68 211.828L145.555 212.523C145.372 212.799 145.141 213.062 144.859 213.312C144.578 213.562 144.232 213.766 143.82 213.922C143.414 214.078 142.932 214.156 142.375 214.156ZM7.39844 234.812V236H1.25V234.812H7.39844ZM7.17188 228.57L1.57812 236H0.695312V234.938L6.25 227.547H7.17188V228.57ZM6.53125 227.547V228.742H0.757812V227.547H6.53125ZM8.53125 231.867V231.688C8.53125 231.078 8.61979 230.513 8.79688 229.992C8.97396 229.466 9.22917 229.01 9.5625 228.625C9.89583 228.234 10.2995 227.932 10.7734 227.719C11.2474 227.5 11.7786 227.391 12.3672 227.391C12.9609 227.391 13.4948 227.5 13.9688 227.719C14.4479 227.932 14.8542 228.234 15.1875 228.625C15.526 229.01 15.7839 229.466 15.9609 229.992C16.138 230.513 16.2266 231.078 16.2266 231.688V231.867C16.2266 232.477 16.138 233.042 15.9609 233.562C15.7839 234.083 15.526 234.539 15.1875 234.93C14.8542 235.315 14.4505 235.617 13.9766 235.836C13.5078 236.049 12.9766 236.156 12.3828 236.156C11.7891 236.156 11.2552 236.049 10.7812 235.836C10.3073 235.617 9.90104 235.315 9.5625 234.93C9.22917 234.539 8.97396 234.083 8.79688 233.562C8.61979 233.042 8.53125 232.477 8.53125 231.867ZM9.97656 231.688V231.867C9.97656 232.289 10.026 232.688 10.125 233.062C10.224 233.432 10.3724 233.76 10.5703 234.047C10.7734 234.333 11.026 234.56 11.3281 234.727C11.6302 234.888 11.9818 234.969 12.3828 234.969C12.7786 234.969 13.125 234.888 13.4219 234.727C13.724 234.56 13.974 234.333 14.1719 234.047C14.3698 233.76 14.5182 233.432 14.6172 233.062C14.7214 232.688 14.7734 232.289 14.7734 231.867V231.688C14.7734 231.271 14.7214 230.878 14.6172 230.508C14.5182 230.133 14.3672 229.802 14.1641 229.516C13.9661 229.224 13.7161 228.995 13.4141 228.828C13.1172 228.661 12.7682 228.578 12.3672 228.578C11.9714 228.578 11.6224 228.661 11.3203 228.828C11.0234 228.995 10.7734 229.224 10.5703 229.516C10.3724 229.802 10.224 230.133 10.125 230.508C10.026 230.878 9.97656 231.271 9.97656 231.688ZM17.6562 231.867V231.688C17.6562 231.078 17.7448 230.513 17.9219 229.992C18.099 229.466 18.3542 229.01 18.6875 228.625C19.0208 228.234 19.4245 227.932 19.8984 227.719C20.3724 227.5 20.9036 227.391 21.4922 227.391C22.0859 227.391 22.6198 227.5 23.0938 227.719C23.5729 227.932 23.9792 228.234 24.3125 228.625C24.651 229.01 24.9089 229.466 25.0859 229.992C25.263 230.513 25.3516 231.078 25.3516 231.688V231.867C25.3516 232.477 25.263 233.042 25.0859 233.562C24.9089 234.083 24.651 234.539 24.3125 234.93C23.9792 235.315 23.5755 235.617 23.1016 235.836C22.6328 236.049 22.1016 236.156 21.5078 236.156C20.9141 236.156 20.3802 236.049 19.9062 235.836C19.4323 235.617 19.026 235.315 18.6875 234.93C18.3542 234.539 18.099 234.083 17.9219 233.562C17.7448 233.042 17.6562 232.477 17.6562 231.867ZM19.1016 231.688V231.867C19.1016 232.289 19.151 232.688 19.25 233.062C19.349 233.432 19.4974 233.76 19.6953 234.047C19.8984 234.333 20.151 234.56 20.4531 234.727C20.7552 234.888 21.1068 234.969 21.5078 234.969C21.9036 234.969 22.25 234.888 22.5469 234.727C22.849 234.56 23.099 234.333 23.2969 234.047C23.4948 233.76 23.6432 233.432 23.7422 233.062C23.8464 232.688 23.8984 232.289 23.8984 231.867V231.688C23.8984 231.271 23.8464 230.878 23.7422 230.508C23.6432 230.133 23.4922 229.802 23.2891 229.516C23.0911 229.224 22.8411 228.995 22.5391 228.828C22.2422 228.661 21.8932 228.578 21.4922 228.578C21.0964 228.578 20.7474 228.661 20.4453 228.828C20.1484 228.995 19.8984 229.224 19.6953 229.516C19.4974 229.802 19.349 230.133 19.25 230.508C19.151 230.878 19.1016 231.271 19.1016 231.688Z" fill="#333B41"/>
<path d="M79.9738 43.264C79.6244 42.9363 79.2749 42.6961 78.9472 42.5213C78.6196 42.3684 78.2483 42.2811 77.8333 42.2811C77.3528 42.2811 77.0033 42.3903 76.763 42.5869C76.5228 42.7834 76.3917 43.1111 76.3917 43.5479C76.3917 43.8537 76.5228 44.1377 76.7849 44.3342C77.047 44.5527 77.3528 44.7492 77.7459 44.9458C78.1391 45.1424 78.5541 45.339 78.9909 45.5574C79.4278 45.7758 79.8428 46.0161 80.2359 46.3219C80.6291 46.6277 80.9349 46.9771 81.197 47.414C81.4591 47.8508 81.5902 48.375 81.5902 48.9866C81.5902 49.9258 81.3281 50.734 80.8257 51.4111C80.3233 52.0882 79.537 52.5251 78.5322 52.7653V54.8185H76.632V52.8527C76.0641 52.7872 75.4525 52.6343 74.8191 52.3722C74.1856 52.1101 73.6396 51.7824 73.1809 51.3674L74.4478 49.4235C74.9501 49.7948 75.4307 50.0787 75.8675 50.2753C76.3262 50.4719 76.7849 50.5593 77.2436 50.5593C77.7896 50.5593 78.2046 50.4501 78.4449 50.2316C78.707 50.0132 78.838 49.6637 78.838 49.2051C78.838 48.8556 78.707 48.5716 78.4449 48.3314C78.1828 48.0911 77.877 47.8727 77.4838 47.6543C77.0907 47.4358 76.6757 47.2174 76.2388 46.999C75.802 46.7806 75.387 46.5185 74.9938 46.2127C74.6007 45.9069 74.2949 45.5574 74.0328 45.1424C73.7706 44.7274 73.6396 44.2469 73.6396 43.6571C73.6396 42.6961 73.9017 41.8879 74.4259 41.2545C74.9501 40.6211 75.6928 40.2061 76.6101 40.0313V38H78.5104V39.9876C79.1438 40.075 79.6899 40.2716 80.1704 40.5555C80.6509 40.8395 81.0659 41.189 81.4591 41.604L79.9738 43.264Z" fill="#333B41"/>
<path fill-rule="evenodd" clip-rule="evenodd" d="M127 114L123.406 111.789L115.389 126.164L119.26 128.099L127 114Z" fill="#333B41"/>
<path fill-rule="evenodd" clip-rule="evenodd" d="M121.471 111.236C112.072 100.454 103.778 103.219 92.7209 110.406C83.0454 116.764 75.858 112.341 68.6705 115.382C67.0119 116.211 64.5239 118.147 66.7354 120.082C67.8412 120.911 72.2642 121.74 73.6464 121.464C81.1103 119.805 83.3219 123.123 94.6559 120.911C91.3387 123.399 80.5575 121.74 73.9229 122.57C68.6705 123.675 60.1008 119.529 67.0119 114.829C63.971 113.447 61.2066 112.618 57.8893 112.341C54.572 109.853 49.3197 106.813 46.5552 105.707C44.3437 104.325 38.8149 104.877 42.4086 108.471C46.0024 111.788 55.6778 119.252 57.6129 120.358C65.3532 125.058 72.5407 128.375 80.0046 132.522C80.0046 132.522 82.4926 133.904 87.4685 131.969C91.0622 130.31 107.096 121.464 110.966 122.846C113.177 123.675 114.283 124.228 114.283 124.228L121.471 111.236Z" stroke="#333B41" stroke-width="1.5"/>
<path fill-rule="evenodd" clip-rule="evenodd" d="M74.7528 110.406C75.3057 109.3 75.8586 108.471 76.6879 108.195C77.5172 107.918 77.7937 108.471 78.3465 109.024C78.8994 109.853 79.1759 110.13 80.0052 110.683C80.2816 110.959 80.8345 110.959 81.1109 110.959L80.5581 110.683C79.7287 110.13 79.1759 109.577 79.4523 108.471C79.4523 108.195 79.1759 107.642 79.7287 107.642C80.2816 107.918 81.1109 108.471 81.9403 108.471C81.9403 108.471 82.7696 108.747 82.4931 108.471C82.4931 108.195 81.9403 107.918 81.6638 107.642C80.0052 106.259 80.0052 105.983 80.0052 104.048C80.2816 101.284 79.1759 99.072 77.2408 97.1369C72.8177 92.7139 74.7528 86.6322 78.0701 80.8269C81.1109 75.5746 83.8753 74.7452 80.8345 68.3871C79.7287 65.6227 77.7937 62.8583 77.5172 61.1996C77.5172 60.6468 77.5172 60.9232 77.5172 61.1996C77.2408 62.8583 78.3465 65.3463 79.4523 67.8342C81.9403 73.363 81.3874 73.9159 77.7937 78.8918C73.9235 83.8678 71.1591 89.1202 72.8177 94.649C73.9235 98.5191 79.4523 102.389 76.6879 104.877C75.3057 105.983 73.3706 108.747 73.0942 110.406C72.8177 111.235 72.8177 111.235 72.5413 111.788C72.2648 112.065 72.5413 112.065 72.8177 112.065C74.1999 111.788 74.1999 111.235 74.7528 110.406Z" fill="#333B41"/>
<path d="M93.068 84.529L93.9801 84.2684L94.0232 85.2161C94.171 88.4683 92.7785 92.3664 90.4893 95.4425C89.3023 97.0375 87.8405 98.4545 86.1798 99.4487C87.2729 99.074 88.4759 98.3838 89.693 97.1695C92.9277 93.6792 93.8196 89.2419 94.8558 83.5536C93.8903 83.6402 92.939 83.8564 91.9621 84.1392C91.3211 84.3247 90.6773 84.5364 90.0111 84.757C89.9707 84.7704 89.9303 84.7838 89.8898 84.7972C89.2724 85.0018 88.6358 85.2127 87.983 85.4089C82.8544 87.3021 80.0789 89.6595 79.0705 92.3645C78.8202 93.654 78.8551 94.8192 79.2935 95.696L79.3303 95.7696L79.3502 95.8495C79.5236 96.5427 80.2251 97.1847 81.1664 97.7019C82.2176 96.713 82.9504 95.8296 83.6711 94.9124C83.4958 95.0928 83.3319 95.265 83.177 95.428C83.0512 95.5602 82.9313 95.6863 82.8158 95.8057C82.6195 96.0085 82.4294 96.1985 82.2546 96.3497C82.0972 96.4858 81.8775 96.6584 81.6242 96.7429L81.4353 96.8059L81.24 96.7668C80.3452 96.5879 79.6727 96.0935 79.397 95.2664C79.1499 94.5252 79.2728 93.6546 79.5608 92.7804C80.0551 90.8473 81.5708 89.3363 83.8139 88.0545C86.0718 86.7643 89.1837 85.6388 93.068 84.529Z" stroke="#333B41" stroke-width="1.5"/>
<path d="M66.3596 66.3644C64.8834 65.8492 63.5975 65.4005 62.1588 65.1376C62.2081 65.3789 62.2565 65.6175 62.3044 65.8535C62.435 66.4963 62.5616 67.1198 62.6907 67.7246C62.6549 67.2771 62.6472 66.8382 62.6697 66.4124L62.7194 65.4666L63.6286 65.7318C66.9611 66.7038 69.6538 67.6904 71.6309 68.8048C73.3949 69.799 74.6825 70.9474 75.2883 72.3666C74.4485 70.1059 72.2374 68.1687 67.9065 66.8949L67.8936 66.8911L67.8809 66.8869C67.3455 66.7084 66.8424 66.5328 66.3596 66.3644ZM65.6847 75.3307C65.1001 74.544 64.585 73.6921 64.1531 72.8091C64.7589 74.2532 65.5581 75.5475 66.7134 76.7027L66.7232 76.7125L66.7326 76.7227C67.369 77.408 68.008 77.8996 68.6251 78.2467C67.5046 77.458 66.5136 76.4458 65.6847 75.3307ZM75.4641 75.5154C75.8985 74.6465 75.911 73.8128 75.5015 72.9459C75.7846 73.7324 75.7967 74.5125 75.5112 75.1787C75.205 75.8931 74.5926 76.3875 73.8288 76.5784L73.617 76.6314L73.4098 76.5623C73.3252 76.5341 73.2444 76.4969 73.1683 76.455C73.3424 76.6533 73.5256 76.8555 73.7217 77.0632L73.7415 77.0583C74.7005 76.8185 75.2238 76.4027 75.4073 75.6689L75.4273 75.589L75.4641 75.5154Z" stroke="#333B41" stroke-width="1.5"/>
<path d="M90.7817 66.6734C90.4562 67.062 90.1084 67.4323 89.7404 67.7771C89.9069 67.6374 90.0745 67.4844 90.2426 67.317C90.4332 67.1067 90.6125 66.8922 90.7817 66.6734ZM93.9904 57.4629C93.9931 57.4482 93.9958 57.4336 93.9985 57.4189C92.4669 57.7173 90.8898 58.1955 89.1138 58.8616L89.1138 58.8617L89.1027 58.8656C85.6254 60.1075 83.7148 61.5078 82.8639 63.3818C83.4433 62.1922 84.4856 61.2208 85.9543 60.3771C87.6626 59.3957 90.0171 58.5465 93.0761 57.7122L93.9904 57.4629ZM83.9138 67.1641C83.613 67.0638 83.3531 66.9104 83.14 66.7123C83.3282 67.0575 83.5877 67.3413 83.9505 67.5208C84.0559 67.4112 84.1572 67.3037 84.2551 67.1978C84.2211 67.2009 84.1863 67.2025 84.1509 67.2025H84.0292L83.9138 67.1641Z" stroke="#333B41" stroke-width="1.5"/>
</g>
<defs>
<linearGradient id="paint0_linear_126_43" x1="-7.44304" y1="24.8889" x2="195.1" y2="114.913" gradientUnits="userSpaceOnUse">
<stop stop-color="#F9804B"/>
<stop offset="1" stop-color="#FE9013"/>
</linearGradient>
<clipPath id="clip0_126_43">
<rect width="168" height="244" rx="5" fill="white"/>
</clipPath>
</defs>
</svg>
